/* XPM */
static char *dummy[]={
"64 64 10 1",
". c None",
"b c #993300",
"h c #996600",
"# c #cc3300",
"d c #cc3333",
"g c #cc6600",
"c c #cc6633",
"f c #ff6600",
"a c #ff6633",
"e c #ff9900",
"...................................#aaaab.......................",
"...................................#aaaab.......................",
"...................................#aaaab.......................",
"...................................#aaaab.......................",
"...................................#aaaab.......................",
"...................................#aaaab.......................",
"...................................#aaaab.......................",
"...................................#aaaab.......................",
"...................................#aaaab.......................",
"...................................#aaaab.......................",
".....................aaaa#.........#aaaaaaaaa...................",
".....................aaaa#.........#aaaaaaaaa...................",
".....................aaaa#.........#aaaaaaaaa...................",
".....................aaaa#.........#aaaaaaaaa...................",
".....................aaaa#.....aaaaaaaaaaaaaa...................",
".....................aaaa#.....aaaaaaaaaaaaaa...................",
".....................aaaa#.....aaaaaaaaaaaaaa...................",
".....................aaaa#.....aaaaaaaaaaaaaa...................",
"aaaaa..........aaaaaaaaaa#.....aaaaaaaaaaaaaa...................",
"aaaaa..........aaaaaaaaaa#.....aaaaaaaaaaaaaa...................",
"aaaaa..........aaaaaaaaaa#.....aaaaaaaaaaaaaa...................",
"aaaaa..........aaaaaaaaaa#.....aaaaaaaaaaaaaa...................",
"aaaaa..........aaaaaaaaaa#.....aaaaaaaaaaaaaacddddd.....dddd#...",
"aaaaa..........aaaaaaaaaa#.....aaaaaaaaaaaaaaaaaaaa.....aaaaa...",
"aaaaa..........aaaaaaaaaa#.....aaaaaaaaaaaaaaaaaaaa.....aaaaa...",
"aaaaa..........aaaaaaaaaa#.....aaaaaaaaaaaaaaaaaaaa.....aaaaa...",
"aaaaa..........aaaaaaaaaa#.....aaaaaaaaaaaaaaaaaaaa.....aaaaa...",
"..........#####aaaaaaaaaaa#####aaaaaaaaaaaaaaaaaaaa.............",
"..........aaaaaaaaaaaaaaaaaaaaaaaaaaaaaaaaaaaaaaaaa.............",
"..........aaaaaaaaaaaaaaaaaaaaaaaaaaaaaaaaaaaaaaaaa.............",
"..........aaaaaaaaaaaaaaaaaaaaaaaaaaaaaaaaaaaaaaaaa.............",
"..........aaaaaaaaaaaaaaaaaaaaaaaaaaaaaaaaaaaaaaaaa.............",
"..........aaaaaaaaaaaaaaaaaaaaaaaaaaeeeeaaaaaaaaaaa.....aaaaa...",
"..........aaaaaaaaaaaaaaaaaaaaaaaaaaeeeeaaaaaaaaaaa.....aaaaa...",
"..........aaaaaaaaaaaaaaaaaaaaaaaaaaeeeeaaaaaaaaaaa.....aaaaa...",
"..........aaaaaaaaaaaaaaaaaaaaaaaaafeeeeaaaaaaaaaaa.....aaaaa...",
"aaaaa.....aaaaaaaaaaaaaaaaaaaaaeeeeeeeeeaaaaaaaaaaa.....aaaaa...",
"aaaaa.....aaaaaaaaaaaaaaaaaaaaaeeeeeeeeeaaaaaaaaaaa.....aaaaa...",
"aaaaa.....aaaaaaaaaaaaaaaaaaaaaeeeeeeeeeaaaaaaaaaaa.....aaaaa...",
"aaaaa.....aaaaaaaaaaaaaaaaaaaaaeeeeeeeeeaaaaaaaaaaa.....aaaaa...",
"aaaaa.....aaaaaaaaaaaaaaaaaaaaaeeeeeeeeeaaaaaaaaaaa.....aaaaa...",
"aaaaaaaaaaaaaaaaaaaaaeeeefaaaaaeeeeeeeeeaaaaaaaaaaaaaaaaaaaaaaaa",
"aaaaaaaaaaaaaaaaaaaaaeeeefaaaaaeeeeeeeeeaaaaaaaaaaaaaaaaaaaaaaaa",
"aaaaaaaaaaaaaaaaaaaaaeeeefaaaaaeeeeeeeeeaaaaaaaaaaaaaaaaaaaaaaaa",
"aaaaaaaaaaaaaaaaaaaaaeeeefaaaaaeeeeeeeeeaaaaaaaaaaaaaaaaaaaaaaaa",
"aaaaaaaaaaaaaaaeeeeeeeeeeeeeeeeeeeeeeeeeeeeeeaaaaaaaaaaaaaaaaaaa",
"aaaaaaaaaaaaaaaeeeeeeeeeeeeeeeeeeeeeeeeeeeeeeaaaaaaaaaaaaaaaaaaa",
"aaaaaaaaaaaaaaaeeeeeeeeeeeeeeeeeeeeeeeeeeeeeeaaaaaaaaaaaaaaaaaaa",
"aaaaaaaaaaaaaaaeeeeeeeeeeeeeeeeeeeeeeeeeeeeeeaaaaaaaaaaaaaaaaaaa",
"aaaaaaaaaaaaaaaeeeeeeeeeeeeeeeeeeee.....geeeeffffffaaaaaaaaaaaaa",
"aaaaaaaaaaaaaaaeeeeeeeeeeeeeeeeeeee.....heeeeeeeeeeaaaaaaaaaaaaa",
"aaaaaaaaaaaaaaaeeeeeeeeeeeeeeeeeeee.....heeeeeeeeeeaaaaaaaaaaaaa",
"aaaaaaaaaaaaaaaeeeeeeeeeeeeeeeeeeee.....heeeeeeeeeeaaaaaaaaaaaaa",
"aaaaaaaaaaaaaaaeeeeeeeeeeeeeeeeeeee.....heeeeeeeeeeaaaaaaaaaaaaa",
".....aaaaaaaaaaeeeeeeeeeeeeeeee.........heeeeeeeeeeeeeefaaaaaaaa",
".....aaaaaaaaaaeeeeeeeeeeeeeeee.........heeeeeeeeeeeeeefaaaaaaaa",
".....aaaaaaaaaaeeeeeeeeeeeeeeee.........heeeeeeeeeeeeeefaaaaaaaa",
".....aaaaaaaaaaeeeeeeeeeeeeeeee.........heeeeeeeeeeeeeefaaaaaaaa",
".....aaaaaaaaaaeeeeeeeeeeeeeeee.........heeeeeeeeeeeeeefaaaaaaaa",
"..........aaaaaaaaaaaeeeeg...................eeeeeeeeeefaaaaaaaa",
"..........aaaaaaaaaaaeeeeg...................eeeeeeeeeefaaaaaaaa",
"..........aaaaaaaaaaaeeeeg...................eeeeeeeeeefaaaaaaaa",
"..........aaaaaaaaaaaeeeeg...................eeeeeeeeeefaaaaaaaa",
"..........aaaaaaaaaaaeeeefhhhhh..............eeeeeeaaaaaaaaaa..."};
