/* XPM */
static char *dummy[]={
"64 64 5 1",
"# c #2f2e2c",
"b c #514e45",
"a c #726b59",
". c #8c8a73",
"c c #98967d",
"............####..............##..aa..........##aa............##",
"............####..............##..aa..........##aa............##",
"..bbaaaaaaaaaa##bbaaaaaabbbbbb##..bbbbaabbaabbaaaaaaaabbbbbbbb##",
"..bbaaaaaaaaaa##bbaaaaaabbbbbb##..bbbbaabbaabbaaaaaaaabbbbbbbb##",
"..bbaaaaaaaaaabbaaaaaaaaaabbbb####bbaaaaaaaaaaaaaaaaaaaaaabbbb##",
"..bbaaaaaaaaaabbaaaaaaaaaabbbb####bbaaaaaaaaaaaaaaaaaaaaaabbbb##",
"..aaaaaaaaaaaabbaaaaaaaaaaaabb##aaaaaaaaaaaaaaaaaaaaaaaaaaaabb##",
"..aaaaaaaaaaaabbaaaaaaaaaaaabb##aaaaaaaaaaaaaaaaaaaaaaaaaaaabb##",
"aaaaaaaaaaaaaaaabbaaaaaabbbbbb##..bbaaaaaaaaaaaaaaaaaaaaaaaabb##",
"aaaaaaaaaaaaaaaabbaaaaaabbbbbb##..bbaaaaaaaaaaaaaaaaaaaaaaaabb##",
"..aaaaaaaaaaaaaaaaaaaabbbbbbbb##..aaaaaaaaaaaaaaaaaaaaaaaabbbb##",
"..aaaaaaaaaaaaaaaaaaaabbbbbbbb##..aaaaaaaaaaaaaaaaaaaaaaaabbbb##",
"..aaaaaaaaaaaaaaaaaaaabbbbaabb##..aaaaaaaaaaaaaaaaaaaaaaaabbbb##",
"..aaaaaaaaaaaaaaaaaaaabbbbaabb##..aaaaaaaaaaaaaaaaaaaaaaaabbbb##",
"..bbaaaaaaaaaaaaaaaaaaaaaaaabb##..bbaaaaaaaaaaaaaaaaaaaaaabbbb##",
"..bbaaaaaaaaaaaaaaaaaaaaaaaabb##..bbaaaaaaaaaaaaaaaaaaaaaabbbb##",
"..aaaaaaaaaaaaaaaaaaaaaaaabbbb##..bb##aaaaaaaaaaaaaaaaaabbbbbb##",
"..aaaaaaaaaaaaaaaaaaaaaaaabbbb##..bb##aaaaaaaaaaaaaaaaaabbbbbb##",
"aaaaaaaaaaaaaaaaaaaaaaaaaabbbb######aaaaaaaaaaaaaaaaaaaabbbbbb##",
"aaaaaaaaaaaaaaaaaaaaaaaaaabbbb######aaaaaaaaaaaaaaaaaaaabbbbbb##",
"..aaaaaaaaaaaaaaaaaaaaaaaaaabb##aaaaaaaaaaaaaaaaaaaaaaaaaaaabb##",
"..aaaaaaaaaaaaaaaaaaaaaaaaaabb##aaaaaaaaaaaaaaaaaaaaaaaaaaaabb##",
"..aaaaaabbbbaaaaaabbbbaaaabbbb##..aaaaaaaaaaaaaaaaaaaaaaaabbbb##",
"..aaaaaabbbbaaaaaabbbbaaaabbbb##..aaaaaaaaaaaaaaaaaaaaaaaabbbb##",
"..aaaabbbbbbaaaaaabbbbbbaabbbb##..bbaaaaaaaaaaaabbbbaaaaaabbbb##",
"..aaaabbbbbbaaaaaabbbbbbaabbbb##..bbaaaaaaaaaaaabbbbaaaaaabbbb##",
"..bbaabbbbbbaabbaabbbbbbbbbb####..bbaaaaaaaabbbbbbbbaaaabbbb####",
"..bbaabbbbbbaabbaabbbbbbbbbb####..bbaaaaaaaabbbbbbbbaaaabbbb####",
"..bbbbbbbbbbbbbbbbbbbbbbbbbb####..bbbbbbbbbbbbbbbbbbbbbbbb######",
"..bbbbbbbbbbbbbbbbbbbbbbbbbb####..bbbbbbbbbbbbbbbbbbbbbbbb######",
"################################################################",
"################################################################",
"......aa..........bb..........##......aa......................##",
"......aa..........bb..........##......aa......................##",
"..bbaaaaaaaaaabbbbaaaaaabbbbbb##..bbbbbbbbaaaaaabbaaaabbbbbbbb##",
"..bbaaaaaaaaaabbbbaaaaaabbbbbb##..bbbbbbbbaaaaaabbaaaabbbbbbbb##",
"..bbaaaaaaaaaaaaaaaaaaaaaabbbb##..bbaaaaaaaaaaaaaaaaaaaaaabbbb##",
"..bbaaaaaaaaaaaaaaaaaaaaaabbbb##..bbaaaaaaaaaaaaaaaaaaaaaabbbb##",
"..aaaaaaaaaaaaaaaaaaaaaaaabbbb##..aaaaaaaaaaaaaaaaaaaaaaaaaabb##",
"..aaaaaaaaaaaaaaaaaaaaaaaabbbb##..aaaaaaaaaaaaaaaaaaaaaaaaaabb##",
"..aaaaaaaaaaaaaaaaaaaaaaaaaabb##..aaaaaaaaaaaaaaaaaaaaaaaaaabb##",
"..aaaaaaaaaaaaaaaaaaaaaaaaaabb##..aaaaaaaaaaaaaaaaaaaaaaaaaabb##",
"aaaaaaaaaaaaaaaaaaaaaaaaaaaabb##aabbaaaaaaaaaaaaaaaaaaaaaaaabb##",
"aaaaaaaaaaaaaaaaaaaaaaaaaaaabb##aabbaaaaaaaaaaaaaaaaaaaaaaaabb##",
"..aaaaaaaaaaaaaaaaaaaaaaaaaabb##..bbaaaaaaaaaaaaaaaaaaaaaaaabb##",
"..aaaaaaaaaaaaaaaaaaaaaaaaaabb##..bbaaaaaaaaaaaaaaaaaaaaaaaabb##",
"..bbaaaaaaaaaaaaaaaaaaaaaaaabb##..aaaaaaaaaaaaaaaaaaaaaaaabbbb##",
"..bbaaaaaaaaaaaaaaaaaaaaaaaabb##..aaaaaaaaaaaaaaaaaaaaaaaabbbb##",
"..aaaaaaaaaaaaaaaaaaaaaaaaaabb##aaaaaaaaaaaaaaaaaaaaaaaabbbbbb##",
"..aaaaaaaaaaaaaaaaaaaaaaaaaabb##aaaaaaaaaaaaaaaaaaaaaaaabbbbbb##",
"bbaaaaaaaaaaaaaaaaaaaaaaaabbbb##..aaaaaaaaaaaaaaaaaaaaaabbbbbb##",
"bbaaaaaaaaaaaaaaaaaaaaaaaabbbb##..aaaaaaaaaaaaaaaaaaaaaabbbbbb##",
"##aaaaaaaaaaaaaaaaaaaaaaaaaabb##aaaaaaaaaaaaaaaaaaaaaaaaaaaabb##",
"##aaaaaaaaaaaaaaaaaaaaaaaaaabb##aaaaaaaaaaaaaaaaaaaaaaaaaaaabb##",
"..aaaaaaaaaaaaaaaaaaaaaaaabbbb##..aaaaaaaabbaaaaaaaaaaaaaaaabb##",
"..aaaaaaaaaaaaaaaaaaaaaaaabbbb##..aaaaaaaabbaaaaaaaaaaaaaaaabb##",
"..bbaaaaaaaaaaaaaaaaaaaabbbbbb##..bbaaaaaa##aaaaaaaaaaaaaabbbb##",
"..bbaaaaaaaaaaaaaaaaaaaabbbbbb##.cbbaaaaaa##aaaaaaaaaaaaaabbbb##",
"..bbbbbbaaaabbaaaaaabbbbbbbbbb##..aabbbbaa##bbbbaaaaaaaabbbbbb##",
"..bbbbbbaaaabbaaaaaabbbbbbbbbb##..aabbbbaa##bbbbaaaaaaaabbbbbb##",
"..bbbbbbbbbbbbbbbbbbbbbbbb######..bbbbbbbbbb##bbbbbbbbbbbbbb####",
"..bbbbbbbbbbbbbbbbbbbbbbbb######..bbbbbbbbbb##bbbbbbbbbbbbbb####",
"################################################################",
"################################################################"};
