/* XPM */
static char *dummy[]={
"64 64 505 2",
"Qt c None",
"#k c #000000",
"#e c #010000",
"#V c #020100",
"#W c #030100",
"#U c #030200",
"cm c #030300",
"do c #040200",
"au c #040403",
"fE c #050300",
"bT c #060401",
"bt c #060601",
"fO c #070401",
"a1 c #070501",
"c. c #070601",
"cu c #070701",
"fJ c #090501",
"fU c #090601",
"#v c #090602",
"#3 c #090907",
"bB c #0a0601",
"#E c #0a0702",
"bC c #0b0601",
"fz c #0b0701",
"bZ c #0b0a02",
"bD c #0c0702",
"a# c #0c0802",
"cL c #0c0a02",
"bj c #0c0b02",
"dZ c #0d0802",
"bE c #0d0803",
"#T c #0d0902",
"bJ c #0d0c03",
"#Z c #0e0c02",
"cK c #0e0d03",
"eB c #0f0902",
"cg c #0f0a03",
"dt c #100a02",
"#w c #100b03",
"fI c #110b03",
"b0 c #111003",
"fy c #120c04",
"bA c #130c03",
"fn c #130d04",
"aa c #140d04",
"aU c #14110e",
"bU c #141204",
".A c #150d03",
"dp c #150e03",
"#j c #150e04",
"fF c #160e03",
"c9 c #161404",
"bK c #161405",
"fv c #170f03",
"al c #170f05",
"d. c #181605",
"#L c #181711",
".d c #191004",
"ej c #191705",
".c c #1a1104",
"bF c #1a1705",
"eV c #1b1205",
".R c #1b140b",
"a2 c #1b1705",
"er c #1b1906",
"eu c #1c1a06",
"e8 c #1d1304",
"eP c #1d1305",
".b c #1e1306",
"eH c #1e1406",
"d6 c #1e1b06",
"dK c #1f1507",
"d7 c #1f1c06",
".a c #201507",
"cn c #201d06",
"cZ c #211607",
"dn c #211d05",
"bv c #211d17",
"bS c #221607",
"bY c #221f06",
"d8 c #221f07",
"eA c #231706",
"#F c #231708",
"c8 c #231f07",
"dH c #232106",
"#l c #241808",
"dq c #251806",
"#u c #261908",
"d5 c #272008",
"dm c #272307",
"cJ c #272309",
"am c #281a09",
".q c #281f15",
"fW c #291a06",
"cT c #291b07",
"fK c #2a1b07",
"ei c #2a1c09",
"eM c #2a2209",
".B c #2a231a",
"bk c #2a2709",
"cS c #2b1e07",
"f2 c #2c1d09",
"fm c #2d1e0a",
"c4 c #2d2909",
"#x c #2e1e0a",
"fD c #2e1f0a",
"ca c #2e2820",
"dD c #2e2a09",
"ch c #2e2a0a",
"a. c #2f1f0a",
"em c #2f2b09",
"bV c #2f2b0a",
".3 c #301f08",
"ef c #301f0b",
"dM c #30200a",
"ea c #302b09",
"b4 c #302c09",
"c5 c #302c0a",
"#K c #312108",
"bX c #312d09",
"cM c #312d0a",
"dC c #332e0b",
"dx c #332f0a",
"et c #332f0b",
".z c #342108",
"eG c #342209",
"dU c #34270b",
".# c #342a1e",
"e# c #35280b",
"#Y c #36240c",
"#N c #362509",
"bW c #36310b",
"ew c #36310c",
"aX c #372309",
"b5 c #37320a",
"## c #38250c",
"dT c #382b0c",
"e0 c #38300c",
"eO c #38310c",
"cV c #383127",
"dl c #38330b",
"df c #38330c",
"ag c #39250a",
"e7 c #39260c",
"cC c #39300d",
"#2 c #39340b",
"bI c #39340c",
"eL c #3a260d",
"d# c #3a290a",
"aR c #3a340b",
"cI c #3a350c",
"dc c #3c270a",
"dN c #3c300c",
".e c #3c342b",
"b1 c #3c370d",
"#t c #3d280e",
"#O c #3d310b",
"dk c #3d370d",
"az c #3e280b",
"at c #3e380d",
"bi c #3f2a0e",
"c0 c #3f360e",
"b3 c #3f390d",
"#7 c #402a0b",
"bd c #402a0c",
"#4 c #402a0d",
"cx c #402b0e",
"dj c #403b0e",
"ae c #403b0f",
"#8 c #412b0c",
"ay c #412b0d",
"bP c #412b0e",
"bc c #412c0e",
"be c #422a0b",
"eg c #422c0f",
"e1 c #42300c",
"eZ c #42340e",
"bs c #423c0d",
"bl c #423c0e",
"bf c #432b0b",
"#s c #432c0f",
"ax c #442d0e",
"d0 c #452d0c",
"aE c #452e0f",
"cR c #453b0e",
"b. c #454013",
"fq c #462d0b",
"fV c #462d0c",
"#. c #462e0f",
"fA c #472e0c",
"#R c #472f10",
"b9 c #47400e",
"cH c #47410e",
"#P c #474115",
"ds c #482f0c",
"#f c #483010",
"aL c #483a10",
"fL c #492f0c",
"bg c #492f0d",
"#9 c #493010",
"#0 c #49420e",
"dr c #4a300c",
"aW c #4a3110",
"fG c #4b310d",
".r c #4b3111",
"dV c #4b410f",
"co c #4b440e",
"fS c #4c310d",
"eQ c #4c320d",
"cf c #4c3311",
"aK c #4c3511",
"aM c #4c4510",
"bm c #4c4511",
".N c #4d320d",
".S c #4d3311",
"cB c #4d3811",
"ct c #4d4611",
"fw c #4e320d",
"fX c #4e330d",
"bz c #4e3411",
"aJ c #4e3412",
".O c #4e3615",
"cl c #4e460f",
"dE c #4e480f",
"fu c #4e4d4c",
"e2 c #4f340d",
"e9 c #4f340e",
"aD c #4f3410",
"fl c #4f3512",
"d4 c #4f3711",
".o c #4f4639",
"cN c #4f4810",
"eU c #50340f",
"fR c #503512",
"aV c #503817",
"fp c #50422d",
"cO c #504910",
"ez c #51350e",
"bh c #513511",
"#a c #513612",
".n c #513a1b",
".m c #52350e",
"#D c #523612",
"#S c #523712",
"fY c #53360f",
"fH c #533713",
".P c #534839",
"dO c #534a10",
"dG c #534c10",
"b2 c #534c12",
"fC c #543812",
"#i c #543813",
"bn c #544c13",
"eF c #55370e",
"eY c #553c13",
"dd c #554b3c",
"bL c #554e13",
"aA c #56380f",
"fx c #563a13",
"bw c #563d1b",
"cD c #564e13",
".l c #573810",
"#M c #573912",
"fN c #573a14",
"dS c #574d13",
"ek c #574f12",
"bo c #574f13",
"cP c #575012",
".h c #584a38",
"eW c #593a11",
"dP c #595112",
"ad c #595211",
".M c #5a3a0f",
"e5 c #5a3c13",
"aF c #5a3c14",
"aQ c #5a5211",
"bG c #5a5214",
"f1 c #5b3c14",
".6 c #5b3e18",
"cb c #5b411e",
"cw c #5b5041",
"eN c #5b5114",
"a3 c #5b5214",
".g c #5b5b5b",
"ab c #5c3d15",
"cY c #5c3e15",
"e. c #5c3f14",
".D c #5c4d3a",
"cG c #5c5413",
"dB c #5c5415",
"da c #5d3d10",
"fZ c #5d3d13",
"fi c #5d3e15",
"d9 c #5d4014",
"eb c #5d5512",
"c7 c #5d5515",
".C c #5d5d5d",
"dI c #5e3d10",
".5 c #5e4f3c",
"dQ c #5e5613",
"#Q c #5e5b45",
"af c #5e5c45",
"fa c #5f3f13",
"cW c #5f4421",
"bO c #5f5444",
"es c #5f5614",
"dW c #5f5713",
"cQ c #5f5715",
"aS c #5f5b45",
"fM c #603f11",
".E c #60431b",
"fr c #613f11",
".k c #614014",
"aI c #614116",
"du c #614622",
".4 c #616161",
"#J c #623f10",
"db c #624011",
"cA c #624115",
"f0 c #624116",
"ba c #625646",
"c6 c #625916",
"dF c #625a13",
".y c #634011",
"#6 c #634113",
"eI c #634215",
"e3 c #644111",
"#m c #644216",
".i c #64461e",
"ev c #645b16",
"aw c #655948",
"dL c #664417",
"dR c #665d16",
"eE c #674312",
".j c #674517",
"b6 c #675e16",
".2 c #684412",
"dJ c #694412",
"#G c #694618",
"dY c #695f15",
"#X c #6a4718",
"bR c #6b4718",
"bb c #6b4818",
"c3 c #6b6118",
"aN c #6b6217",
"ci c #6b6218",
"cU c #6b6b6b",
"bQ c #6c4818",
"cp c #6c6215",
".L c #6d4713",
"aC c #6d4816",
"#r c #6d4819",
"eX c #6d4918",
"el c #6d6416",
"di c #6d6418",
"an c #6e4919",
"cy c #6e4a19",
"cq c #6e6415",
"c1 c #6f6419",
"ck c #6f6516",
"bp c #6f6517",
"fo c #6f6b65",
"c# c #6f6f6f",
"de c #704b19",
"dX c #706616",
"ah c #714a14",
"dy c #716716",
"bu c #717171",
"d3 c #724c19",
".9 c #724c1a",
"#1 c #736917",
"bH c #736919",
"aj c #744c14",
".7 c #744d1a",
"fs c #744e1a",
"ai c #754c14",
".F c #754e1a",
"fk c #754e1b",
"a9 c #756b17",
"aT c #757575",
".1 c #764d15",
"eK c #764e1b",
".x c #774d15",
"ec c #774e15",
"as c #776c18",
"dA c #776c1a",
"ac c #776d18",
"#q c #784e15",
"fc c #784e16",
"ey c #784f16",
"eh c #78501b",
"a8 c #786d17",
".0 c #794f15",
".w c #794f16",
"e6 c #79511b",
"cj c #796e1a",
"d1 c #7a5016",
"eT c #7a5017",
"dv c #7a511c",
"ar c #7a6f18",
".Q c #7a7772",
".K c #7b5017",
"#d c #7b5117",
"#I c #7b5118",
"#y c #7b521c",
"aq c #7b7018",
"dg c #7b711b",
"#C c #7c5117",
"eS c #7c5118",
"cz c #7c521c",
"br c #7c7119",
"dz c #7c711a",
"fB c #7d5218",
"#b c #7d531c",
"cF c #7d721c",
"fd c #7e5218",
"aY c #7e5318",
"cX c #7e541c",
"#5 c #7f531a",
".W c #7f551d",
"ak c #805419",
"aG c #80561d",
"aP c #80751a",
".p c #807c77",
".v c #815419",
".Z c #815519",
"ce c #81561d",
"cc c #81571d",
"ed c #825519",
".V c #82571d",
"cr c #82761c",
"aB c #83561a",
"fP c #83571a",
"ep c #83571d",
"aH c #83571e",
"d2 c #83581d",
"#B c #84571a",
".J c #84571b",
"f# c #84581d",
".X c #84581e",
"cE c #84781e",
"fe c #85571b",
"fj c #85581b",
"fT c #85581c",
"#h c #85581e",
".s c #85591e",
"bq c #85791b",
"a7 c #85791c",
"av c #858482",
"eo c #86581b",
"en c #86591c",
"bx c #865a1e",
"aO c #867a1c",
"fg c #87591c",
"f. c #875a1c",
"#n c #875a1e",
"ex c #885a1c",
"eR c #885a1d",
"aZ c #885a1e",
"e4 c #895b1d",
"dw c #895b1f",
"eq c #895c1f",
"eD c #8a5b1d",
"ff c #8a5c1d",
".T c #8a5c1f",
"b# c #8a8886",
"#A c #8b5c1d",
".I c #8b5c1e",
"cd c #8b5d1f",
"ee c #8c5d1e",
".U c #8c5d20",
"#g c #8c5e20",
"b8 c #8c7f1e",
"dh c #8c801f",
"a4 c #8c8020",
".u c #8d5d1e",
".Y c #8d5e1f",
"by c #8d5e20",
"#H c #8e5e1f",
"a0 c #8e5e20",
"#p c #8e5f1f",
".G c #8e5f20",
"eC c #8f5f1f",
"#o c #8f5f20",
".8 c #8f6021",
"a5 c #8f8220",
"c2 c #8f8321",
"bN c #8f8d89",
".H c #906020",
"fQ c #906021",
"a6 c #908320",
"bM c #908420",
"#c c #916020",
"#z c #916120",
"fh c #916121",
"cs c #918520",
"cv c #918e8a",
"eJ c #926120",
"ao c #926121",
"fb c #926221",
"ap c #936221",
"b7 c #938621",
".t c #946322",
"ft c #c3c3c3",
".f c #e9e9e9",
"QtQtQtQtQtQtQtQtQtQtQtQtQtQtQtQtQtQtQtQtQtQtQtQt.#.a.a.a.a.a.a.b.b.c.d.d.d.e.eQtQtQtQtQtQt.fQtQtQtQtQtQtQtQtQtQtQtQtQtQtQtQtQtQt",
"QtQtQtQtQtQtQtQtQtQtQtQtQtQtQtQtQtQtQtQtQt.g.h.h.i.j.j.j.j.j.j.k.k.l.m.m.m.n.n.oQtQtQtQtQtQtQtQtQtQtQtQtQtQtQtQtQtQtQtQtQtQtQtQt",
"QtQtQtQtQtQtQtQtQtQtQtQtQtQtQtQtQtQtQtQtQt.g.h.h.i.j.j.j.j.j.j.k.k.l.m.m.m.n.n.oQtQtQtQtQtQtQtQtQtQtQtQtQtQtQtQtQtQtQtQtQtQtQtQt",
"QtQtQtQtQtQtQtQtQtQtQtQtQtQtQtQtQtQtQt.p.p.q.r.r.s.t.t.t.t.t.t.u.u.v.w.w.x.y.y.z.A.A.A.B.BQtQtQtQtQtQtQtQtQtQtQtQtQtQtQtQtQtQtQt",
"QtQtQtQtQtQtQtQtQtQtQtQtQtQtQtQtQtQt.C.D.D.E.F.F.G.t.t.t.t.t.t.H.H.I.J.J.K.L.L.M.N.N.N.O.O.PQtQtQtQtQtQtQtQtQtQtQtQtQtQtQtQtQtQt",
"QtQtQtQtQtQtQtQtQtQtQtQtQtQtQtQt.Q.Q.R.S.S.T.t.t.t.U.U.V.W.W.W.X.X.G.Y.Y.Z.0.0.x.1.1.1.2.2.3QtQtQtQtQtQtQtQtQtQtQtQtQtQtQtQtQtQt",
"QtQtQtQtQtQtQtQtQtQtQtQtQtQtQtQt.Q.Q.R.S.S.T.t.t.t.U.U.V.W.W.W.X.X.G.Y.Y.Z.0.0.x.1.1.1.2.2.3QtQtQtQtQtQtQtQtQtQtQtQtQtQtQtQtQtQt",
"QtQtQtQtQtQtQtQtQtQtQtQtQtQtQt.4.5.5.6.7.7.8.t.t.t.9.9#.#######a#a#b#c#c.I.J.J#d.1.1.1.2.2.3QtQtQtQtQtQtQtQtQtQtQtQtQtQtQtQtQtQt",
"QtQtQtQtQtQtQtQtQtQtQtQtQtQtQt#e#f#f.G#g#g#h.X.X.X#i#i#j#k#k#k#l#l#m#n#n#o#p#p.Z#q#q.x.2.2.3QtQtQtQtQtQtQtQtQtQtQtQtQtQtQtQtQtQt",
"QtQtQtQtQtQtQtQtQtQtQtQtQtQtQt#e#f#f.G#g#g#h.X.X.X#i#i#j#k#k#k#l#l#m#n#n#o#p#p.Z#q#q.x.2.2.3QtQtQtQtQtQtQtQtQtQtQtQtQtQtQtQtQtQt",
"QtQtQtQtQtQtQtQtQtQtQtQtQtQtQt#e#f#f.G#r#r#s#t#t#t#u#u#v#k#k#k#w#w#x#a#a#y#z#z#A#B#B#C.2.2.3QtQtQtQtQtQtQtQtQtQtQtQtQtQtQtQtQtQt",
"QtQtQtQtQtQtQtQtQtQtQtQtQtQtQt#e#f#f.G#D#D#E#k#k#k#k#k#k#k#k#k#k#k#k#F#F#G.t.t.t#H#H#I#J#J#K#L#LQtQtQtQtQtQtQtQtQtQtQtQtQtQtQtQt",
"QtQtQtQtQtQtQtQtQtQtQtQtQtQtQt#e#f#f.G#D#D#E#k#k#k#k#k#k#k#k#k#k#k#k#F#F#G.t.t.t.s.s#M#N#N#O#P#P#QQtQtQtQtQtQtQtQtQtQtQtQtQtQtQt",
"QtQtQtQtQtQtQtQtQtQtQtQtQtQtQt#e#f#f.G#D#D#E#k#k#k#k#k#k#k#k#k#k#k#k#F#F#G.t.t.t.s.s#M#N#N#O#P#P#QQtQtQtQtQtQtQtQtQtQtQtQtQtQtQt",
"QtQtQtQtQtQtQtQtQtQtQtQtQtQtQt#e#R#R.Y#S#S#T#U#U#U#V#V#k#k#k#k#e#e#W#u#u#X.t.t.t#b#b#Y#Z#Z#0#1#1#2#3#3QtQtQtQtQtQtQtQtQtQtQtQtQt",
"QtQtQtQtQtQtQtQtQtQtQtQtQtQtQt#e#4#4#5#6#6#7#8#8#9a.a.a##k#k#kaaaa##abab.W.t.t.t#b#b#Y#Z#Z#0acacadaeaeafQtQtQtQtQtQtQtQtQtQtQtQt",
"QtQtQtQtQtQtQtQtQtQtQtQtQtQtQt#kagagahaiaiajakak#Hababal#k#k#kamamanaoaoap.t.t.t#b#b#Y#Z#Z#0aqaqarasasatauauQtQtQtQtQtQtQtQtQtQt",
"QtQtQtQtQtQtQtQtQtQtQtQtQtQtQt#kagagahaiaiajakak#Hababal#k#k#kamamanaoaoap.t.t.t#b#b#Y#Z#Z#0aqaqarasasatauauQtQtQtQtQtQtQtQtQtQt",
"QtQtQtQtQtQtQtQtQtQtQtQtavawawaxayayazaAaAah#C#CaBaCaCaDaEaEaEaFaFaGaHaHaIaJaJaJaKaKaLaMaMaNaOaOaPararaQaRaRaSQtQtQtQtQtQtQtQtQt",
"QtQtQtQtQtQtQtQtQtQtaTaTaUaVaV.TaWaW#vaXaX.L.1.1.1aYaYaZ.U.U.Ua0a0ao.9.9a.a1a1a1a2a2a3a4a4a5a6a6a7aqaqa8a9a9b.QtQtQtQtQtQtQtQtQt",
"QtQtQtQtQtQtQtQtQtb#baba#sbbbbap#X#Xbcbdbdbebfbfbfbgbgbh#i#i#i#i#i#ibibialbjbjbkblblbmbnbnbnbobobpbqbqaPbrbrbsbtbtQtQtQtQtQtQtQt",
"QtQtQtQtQtQtQtQtQtb#baba#sbbbbap#X#Xbcbdbdbebfbfbfbgbgbh#i#i#i#i#i#ibibialbjbjbkblblbmbnbnbnbobobpbqbqaPbrbrbsbtbtQtQtQtQtQtQtQt",
"QtQtQtQtQtQtQtbububvbwbwbxbybyapbybybxbzbzbAbBbBbBbCbCbDbEbEbEbEbEbE#v#v#UbFbFbGbHbHbIbJbJbJbKbKbLbMbMaObrbrbsbtbtQtQtQtQtQtQtQt",
"QtQtQtQtQtQtbNbObObPbQbQ.t.t.t.t.t.t.tbRbRbibSbSbTbUbUbVbWbWbXbYbYbZ#k#k#kb0b0b1b2b2b3b4b4b4b5b5b6b7b7b8a7a7b9c.c.QtQtQtQtQtQtQt",
"QtQtQtQtQtQtbNbObObPbQbQ.t.t.t.t.t.t.tbRbRbibSbSbTbUbUbVbWbWbXbYbYbZ#k#k#kb0b0b1b2b2b3b4b4b4b5b5b6b7b7b8a7a7b9c.c.QtQtQtQtQtQtQt",
"QtQtQtQtc#c#cacbcbcccdcd.t.t.t.t.t.t.tcdcdcecfcfcgchchcicjcjckclclbF#k#k#kcmcmbjcncncocpcpcpcqcqcrb7b7csbMbMctcucuQtQtQtQtQtQtQt",
"QtQtQtcvcwcwcxcycy.t.t.t.t.t.t.t.t.t.tczczcAcBcBcCcDcDcEcFcFcGcHcHcIcJcJcK#k#k#kcLcLcMcNcNcNcOcOcPcQcQcQcQcQcRcScScTcTcTQtQtQtQt",
"QtcUcUcVcWcWcX.T.T.t.t.t.t.t.t.t.t.t.tcYcYcZc0c0c1cEcEc2c3c3c4c5c5c6c7c7c8#k#k#k#U#UbjbUbUbUbUbUc9d.d.d.d.d.d#dadadbdbdbdcQtQtQt",
"QtcUcUcVcWcWcX.T.T.t.t.t.t.t.t.t.t.t.tcYcYcZc0c0c1cEcEc2c3c3c4c5c5c6c7c7c8#k#k#k#U#UbjbUbUbUbUbUc9d.d.d.d.d.d#dadadbdbdbdcQtQtQt",
"Qtddddbidede.t.t.t.t.t.t.t.t.t.t.t.t.t#D#D#EdfdfdgdhdhdhdididjdkdkbocDcDdldmdmdmdndn#Zdododpdqdqdqdqdqdqdqdqdrahah.1.1.1dsdtdtQt",
"Qtdududvdwdw.t.t.t.t.t.t.t.t.t.t.t.t.t#D#D#EdxdxdyaPaPaPdzdzdAdBdBdCdDdDdEdFdFdFdGdGdHbBbBaXdIdIdIdIdIdIdIdIdJajaj.1.1.1dsdtdtQt",
"dKdLdL.t.t.t.t.t.t.t.t.t.t.t.t.t.t.t.t#m#mdMdNdNdOdPdPdPdQdQdRdSdSdTdUdUdVdWdWdXdYdYc4dZdZd0.1.1d1aYaYaYaYaYd1.1.1.1.1.1dsdtdtQt",
"dKdLdL.t.t.t.t.t.t.t.t.t.t.t.t.t.t.t.t#m#mdMdNdNdOdPdPdPdQdQdRdSdSdTdUdUdVdWdWdXdYdYc4dZdZd0.1.1d1aYaYaYaYaYd1.1.1.1.1.1dsdtdtQt",
"dKdLdL.t.t.t.t.t.t.t.t.t.t.t.t.t.t.t.td2d2d3d4d4d5d6d6d6d7d7d8dTdTd9e.e.e#eaeaebdYdYc4dZdZd0ececedeeeeeeeeee.Z.x.x.1.1.1dsdtdtQt",
"dKdLdL.t.t.t.t.t.t.t.t.t.t.t.t.t.t.t.t.t.t.tdLdLef#F#F#F#F#F#FegegehdedeeiejejekelelemdZdZd0#q#qen.t.t.t.t.teoecec.1.1.1dsdtdtQt",
"dKdLdL.t.t.t.t.t.t.t.t.t.t.t.t.t.t.t.t.t.t.tepepcy#X#X#X#X#X#X.F.FeqdedeeiereresdAdAetdZdZd0#q#qen.t.t.t.t.teoecec.1.1.1dsdtdtQt",
"dKdLdL.t.t.t.t.t.t.t.t.t.t.t.t.t.t.t.t.t.t.tepepcy#X#X#X#X#X#X.F.FeqdedeeiereresdAdAetdZdZd0#q#qen.t.t.t.t.teoecec.1.1.1dsdtdtQt",
"dKdLdL.t.t.t.t.t.t.t.t.t.t.t.t.t.t.t.t.t.t.t.t.t.t.t.t.t.t.t.t.t.t.tdedeeieueuevcFcFewdZdZd0#q#qen.t.t.t.t.tex#C#Cey.1.1ezeAeAeB",
"dKdLdL.t.t.t.t.t.t.t.t.t.t.t.t.t.t.t.t.t.t.t.t.t.t.t.t.t.t.t.t.t.t.tdedeeieueuevcFcFewdZdZd0#q#qen.t.t.t.t.teCeDeD.ZececeEeFeFeG",
"eHeIeIeCeJeJ.t.t.t.t.t.t.t.t.t.t.t.t.t.t.t.t.t.t.t.t.t.t.t.t.t.t.t.teKeKeLeMeMeNc3c3eOePePeQ#q#qen.t.t.t.t.t.t.t.teReSeSeTeTeTeU",
"eHeIeIeCeJeJ.t.t.t.t.t.t.t.t.t.t.t.t.t.t.t.t.t.t.t.t.t.t.t.t.t.t.t.teKeKeLeMeMeNc3c3eOePePeQ#q#qen.t.t.t.t.t.t.t.teReSeSeTeTeTeU",
"eVeWeWaB.u.u.t.t.t.t.t.t.t.t.t.t.t.t.t.t.t.t.t.t.t.t.t.t.t.t.t.t.t.t#n#neXeYeYeZe0e0e1e2e2e3#q#qen.t.t.t.t.t.t.t.teCeDeDe4e4e4e5",
".d.m.m.Ke4e4.t.t.t.t.t.t.t.t.t.t.t.t.t.t.t.t.t.t.t.t.t.t.t.t.t.t.t.t.t.t.te6e6e7e8e8e9.1.1ecd1d1f..t.t.t.t.t.t.t.t.t.t.t.t.t.taI",
".d.m.m.Ke4e4.t.t.t.t.t.t.t.t.t.t.t.t.t.t.t.t.t.t.t.t.t.t.t.t.t.t.t.t.t.t.te6e6e7e8e8e9.1.1ecd1d1f..t.t.t.t.t.t.t.t.t.t.t.t.t.taI",
".d.m.m.Ke4e4.t.t.t.t.t.t.t.t.t.t.t.t.t.t.t.t.t.t.t.t.t.t.t.t.t.t.t.t.t.t.tf#f#fa.N.Ne3#q#qakexex#H.t.t.t.t.t.t.t.t.t.t.t.t.t.taI",
".d.m.md1f.f.#zfbfb.t.t.t.t.t.t.t.t.t.t.t.t.t.t.t.t.t.t.t.t.t.t.t.t.t.t.t.t#H#H.vfcfcfc.K.KeR.t.t.t.t.t.t.t.t.t.t.t.t.t.t.t.t.taI",
".d.m.m#qfdfdfe.u.u.t.t.t.t.t.t.t.t.t.t.t.t.t.t.t.t.t.t.t.t.t.t.t.t.t.t.t.t#z#zffenenenf.f.#H.t.t.t.t.t.t.t.t.t.t.t.t.t.t.t.t.taI",
".d.m.m#qfdfdfe.u.u.t.t.t.t.t.t.t.t.t.t.t.t.t.t.t.t.t.t.t.t.t.t.t.t.t.t.t.t#z#zffenenenf.f.#H.t.t.t.t.t.t.t.t.t.t.t.t.t.t.t.t.taI",
".d.m.m.1.1.1.wfgfgaoapap.t.t.t.t.t.t.t.t.t.t.t.t.t.t.t.t.t.t.t.t.t.t.t.t.t.t.t.t.t.t.t.t.t.t.t.t.t.t.t.t.t.t.t.t.t.t.t.tfhbybyfi",
".d.m.m.1.1.1ecaYaYfj.u.u.t.t.t.t.t.t.t.t.t.t.t.t.t.t.t.t.t.t.t.t.t.t.t.t.t.t.t.t.t.t.t.t.t.t.t.t.t.t.t.t.t.t.t.t.t.t.t.tfkflflfm",
"Qt.m.maiaiai.1.1.1fceoeoapapapapapapap.t.t.t.t.t.t.t.t.t.t.t.t.t.t.t.t.t.t.t.t.t.t.t.t.t.t.t.t.t.t.t.t.t.t.t.t.t.tapfbfbaFfnfnQt",
"Qt.m.maiaiai.1.1.1fceoeoapapapapapapap.t.t.t.t.t.t.t.t.t.t.t.t.t.t.t.t.t.t.t.t.t.t.t.t.t.t.t.t.t.t.t.t.t.t.t.t.t.tapfbfbaFfnfnQt",
"fofpfpfqfrfr.1.1.1.xaYaYfjfjfjfjeeeeap.t.t.t.t.t.t.t.t.t.t.t.t.t.t.t.t.t.t.t.t.t.t.t.t.t.t.t.t.t.t.t.t.t.t.t.t.t.tfs#D#D#xQtQtQt",
"ftfufufvfwfw.1.1.1.1.1.1.1.1.1.1.J.Jfb.t.t.t.t.t.t.t.t.t.t.t.t.t.t.t.t.t.t.t.t.t.t.t.t.t.t.t.t.t.t.t.t.t.t.t.t.t.tfxfyfyQtQtQtQt",
"QtQtQtfzcTcTfAfrfr.1.1.1.1.1.1.1fBfBfjeeeefb.t.t.t.t.t.t.t.t.t.t.t.t.t.t.t.t.t.t.t.t.t.t.t.t.t.t.t.t.t.t.t.tfsfCfCfDQtQtQtQtQtQt",
"QtQtQtfzcTcTfAfrfr.1.1.1.1.1.1.1fBfBfjeeeefb.t.t.t.t.t.t.t.t.t.t.t.t.t.t.t.t.t.t.t.t.t.t.t.t.t.t.t.t.t.t.t.tfsfCfCfDQtQtQtQtQtQt",
"QtQtQtQtfEfEfFfGfG.1.1.1.1.1.1.1.1.1.x#B#Bfh.t.t.t.t.t.t.t.t.t.t.t.t.t.t.t.t.t.t.t.t.t.t.t.t.t.t.t.t.t.t.t.tfHfIfIQtQtQtQtQtQtQt",
"QtQtQtQtQtQtfJfKfKfLfMfM.1.1.1.1.1.1.1fBfBfjeeeeao.t.t.t.t.t.t.t.t.t.t.t.t.t.t.t.t.t.t.t.t.t.t.t.taoao.FfNfNfDQtQtQtQtQtQtQtQtQt",
"QtQtQtQtQtQtfJfKfKfLfMfM.1.1.1.1.1.1.1fBfBfjeeeeao.t.t.t.t.t.t.t.t.t.t.t.t.t.t.t.t.t.t.t.t.t.t.t.taoao.FfNfNfDQtQtQtQtQtQtQtQtQt",
"QtQtQtQtQtQtQtfOfOdpdsds.1.1.1.1.1.1.1.x.x#qfPfP.H.t.t.t.t.t.t.t.t.t.t.t.t.t.t.t.t.t.t.t.t.t.t.t.tfQfQfRfIfIQtQtQtQtQtQtQtQtQtQt",
"QtQtQtQtQtQtQtQtQtbTfKfKfSfrfr.1.1.1.1.1.1.1fBfBfTeReReReReReR.I.I#c.t.t.t.t.t.t.t.t.t.t.t.tfQfQ.FaFaFfmQtQtQtQtQtQtQtQtQtQtQtQt",
"QtQtQtQtQtQtQtQtQtQtfUfUfFfVfV.1.1.1.1.1.1.1ecec.0d1d1d1d1d1d1.Z.Z.Y.t.t.t.t.t.t.t.t.t.t.t.tcdcdaJaaaaQtQtQtQtQtQtQtQtQtQtQtQtQt",
"QtQtQtQtQtQtQtQtQtQtfUfUfFfVfV.1.1.1.1.1.1.1ecec.0d1d1d1d1d1d1.Z.Z.Y.t.t.t.t.t.t.t.t.t.t.t.tcdcdaJaaaaQtQtQtQtQtQtQtQtQtQtQtQtQt",
"QtQtQtQtQtQtQtQtQtQtQtQt#UfWfWfXfXfXfXfXfXfXfXfXfXfXfXfXfXfXfXfYfYfZf0f0f0f0f0f0f0f0f0f0f0f0f1f1f2QtQtQtQtQtQtQtQtQtQtQtQtQtQtQt"};
