/* XPM */
static char *dummy[]={
"64 64 27 1",
". c None",
"# c #000000",
"v c #0a0303",
"e c #280d0d",
"w c #3f3209",
"s c #70260a",
"l c #713d0f",
"u c #80320b",
"y c #85350c",
"g c #892322",
"r c #8b3911",
"x c #8c2524",
"i c #954d15",
"k c #962d2b",
"b c #96450f",
"t c #9c4310",
"a c #a33634",
"q c #a44711",
"f c #ad5715",
"h c #b66018",
"d c #b85f1a",
"m c #b96319",
"j c #bd671a",
"c c #c46e1d",
"n c #cc7723",
"p c #ff9e06",
"o c #ffc926",
"..................#aaaaaaaaaaaaaaaaaaaaaaaaaa#..................",
"................#baaaaaaaaaaaaaaaaaaaaaaaaaaaac#................",
"..............#db#aaaaaaaaaaaaaaaaaaaaaaaaaaaaecf#..............",
".............dddbaaaaaaaaaaaaaaaaaaaaaaaaaaaaaacfff.............",
"............dddb#aaaaaaaaaaaaaaaaaaaaaaaaaaaaaagcfff#...........",
"..........#ddddbaaaaaaaaaaaaaaaaaaaaaaaaaaaaaaagcffff#..........",
".........#ddddb#aaaaaaaaaaaaaaaaaaaaaaaaaaaaaaag#cffff#.........",
"........#dddddbaaaaaaaaaaaaaaaaaaaaaaaaaaaaaaagggcfffff#........",
"........ddddddbaaaaaaaaaaaaaaaaaaaaaaaaaaaaaaagggchfffff#.......",
".......ddddddb#aaaaaaaaaaaaaaaaaaaaaaaaaaaaaaaggggcffffff.......",
"......dddddddbaaaaaaaaaaaaaaaaaaaaaaaaaaaaaaagggggcfffffff......",
"......dddddddbaaaaaaaaaaaaaaaaaaaaaaaaaaaaaaagggggcfffffff#.....",
".....dddddddb#aaaaaaaaaaaaaaaaaaaaaaaaaaaaaagggggg#cfffffff.....",
"....#dddddddbaaaaaaaaaaaaaaaaaaaaaaaaaaaaaaagggggggcfffffff#....",
"....ddddddddbaaaaaaaaaaaaaaaaaaaaaaaaaaaaaaggggggggcffffffff....",
"....ddddddddbaaaaaaaaaaaaaaaaaaaaaaaaaaaaaaggggggggcffffffff....",
"...iddddddddbaaaaaaaaaaaaaaaaaaaaaaaaaaaaagggggggggcjffffffff...",
"...ddddddddb#aaaaaaaaaaaaaaaaaaaaaaaaaaaagggggggggg#cffffffff...",
"...ddddddddb#aaaaaaaaaaaaaaaaaaaaaaaaaaaggggggggggggcffffffff...",
"..#ddddddddbaaaaaaaaaaaaaaaaaaaaaaaaaaagggggggggggggcffffffff#..",
"..dddddddddbaaaaaaaaaaaaaaaaaaaaaaaaaaggggggggggggggcfffffffff..",
"..dddddddddbaaaaaaaaaaaaaaaaaaaaaaaaagggggggggggggggcfffffffff..",
"..dddddddddbaaaaaaaaaaaaaaaaaaaaaaaaggggggggggggggggcfffffffff..",
"..dddddddddbaaaaaaaaaaaaaaaaaaaaaaggggggggggggggggggcfffffffff..",
"..dddddddddbaaaaaaaaaaaaaaaaaaaaagggggggggggggggggggcfffffffff..",
"..dddddddddbaaaaaaaaaaaaaaaaaaagggggggggggggggggggggcfffffffff..",
"..dddddddddbaaaaaaaaaaaaaaaaagggggggggggggggggggggggcfffffffff..",
"..dddddddddbaaaaaaaaaaaaaaggggggggggggggggggggggggggcfffffffff..",
"..dddddddddbaaaaaaaaaaaaggggggggggggggggggggggggggggcfffffffff..",
"..dddddddddbaaaaaaaaggggggggggggggggggggggggggggggggcfffffffff..",
"..dddddddddbaaakggggggggggggggggggggggggggggggggggggcffffffffff.",
".ddddddddddbgggggggggggggggggggggggggggggggggggggggglmfffffffffa",
"nnnnnnnnnnnnnnnnnnnnnnnnnnnnnnnnnnnnnnnnnnnnnnnnnnnnnnnnnnnnnnnn",
"dddddddddddddddddddddddddddddd#op#dddddddddddddddddddddddddddddd",
"dddddddddddddddddddddddddddddd#op#dddddddddddddddddddddddddddddd",
"dddddddddddddddddddddddddddddd#op#dddddddddddddddddddddddddddddd",
"dddddddddddddddddddddddddddddd#op#dddddddddddddddddddddddddddddd",
"dddddddddddddddddddddddddddddd#op#dddddddddddddddddddddddddddddd",
"qqqqqqqqqqqqqqqqqqqqqqqqqqqqq##op##qqqqqqqqqqqqqqqqqqqqqqqqqqqqq",
"..rrrrsaaaaaaaaaaaaaaaaaaaaaao#op#oaaaaaaaaaaaaaaaaagggggtuuuu..",
"..rrrrsaaaaaaaaaaaaaaaaaaaaaap#pp##aaaaaaaaaaaaaaaaggggggtuuuu..",
"..rrrrsaaaaaaaaaaaaaaaaaaaaa#aaaaaaoaaaaaaaaaaaaaaaggggggtuuuu..",
"..rrrrsaaaaaaaaaaaaaaaaaaaaaoaaaaaaoaaaaaaaaaaaaaagggggggtuuuu..",
"..rrrrsaaaaaaaaaaaaaaaaaaaavoooooooo#aaaaaaaaaaaakgggggggtuuuu..",
"..rrrrsaaaaaaaaaaaaaaaaaaa#oooo##oooppaaaaaaaaaaaggggggggtuuuu..",
"..rrrrsaaaaaaaaaaaaaaaaaaaaoooo##ooop#aaaaaaaaaagggggggggtuuuu..",
"..rrrrsaaaaaaaaaaaaaaaaaaaaoooow#ooopaaaaaaaaaaggggggggggtuuuu..",
"...rrrsaaaaaaaaaaaaaaaaaaaaoooo##ooppaaaaaaaaagggggggggggtuuuu..",
"...rrrsaaaaaaaaaaaaaaaaaaaaaooooooop#aaaaaaaaggggggggggggtuuu...",
"...rrrs#aaaaaaaaaaaaaaaaaaaaooooooppaaaaaaaagggggggggggggtuuu...",
"...rrrs#aaaaaaaaaaaaaaaaaaaaaoooppp#aaaaaaxggggggggggggg#tuuu...",
"...rrrs#aaaaaaaaaaaaaaaaaaaaaappppaaaaaaaggggggggggggggg#tuuu...",
"...rrrrsaaaaaaaaaaaaaaaaaaaaaaaaaaaaaaaggggggggggggggggg#tuuu...",
"...rrrrsaaaaaaaaaaaaaaaaaaaaaaaaaaaaagggggggggggggggggggtyuuu...",
"...rrrrsaaaaaaaaaaaaaaaaaaaaaaaaaaggggggggggggggggggggggtuuuu...",
"...rrrrsaaaaaaaaaaaaaaaaaaaaaaagggggggggggggggggggggggggtuuuu...",
"...rrrrsaaaaaaaaaaaaaaaaaaggggggggggggggggggggggggggggggtuuuu...",
"..nnnnnnnnnnnnnnnnnnnnnnnnnnnnnnnnnnnnnnnnnnnnnnnnnnnnnnnnnnnn..",
"..dddddddddddddddddddddddddddddddddddddddddddddddddddddddddddd..",
"..dddddddddddddddddddddddddddddddddddddddddddddddddddddddddddd..",
"..dddddddddddddddddddddddddddddddddddddddddddddddddddddddddddd..",
"..dddddddddddddddddddddddddddddddddddddddddddddddddddddddddddd..",
"..dddddddddddddddddddddddddddddddddddddddddddddddddddddddddddd..",
"..qqqqqqqqqqqqqqqqqqqqqqqqqqqqqqqqqqqqqqqqqqqqqqqqqqqqqqqqqqqq.."};
