/* XPM */
static char *dummy[]={
"64 64 43 1",
". c None",
"m c #000000",
"N c #000000",
"q c #000000",
"# c #000000",
"g c #090200",
"w c #0c0902",
"p c #100400",
"e c #160c03",
"f c #221205",
"E c #280d0d",
"s c #2d1706",
"d c #3f0f01",
"J c #3f2c04",
"n c #421001",
"c c #421101",
"h c #45230a",
"M c #541d08",
"k c #551701",
"K c #671a19",
"i c #6c1c02",
"G c #6f5711",
"y c #70260a",
"o c #7d2103",
"L c #7d300e",
"D c #80320b",
"b c #852303",
"F c #87360c",
"B c #892322",
"x c #8b3911",
"O c #8c2524",
"I c #8f2f2d",
"H c #942b2a",
"C c #9c4310",
"l c #9e410e",
"z c #a33634",
"v c #a44711",
"j c #ac5918",
"a c #b85f1a",
"r c #cc7723",
"A c #efbc24",
"u c #ff9e06",
"t c #ffc926",
"......................#aaaaaaaaaaaaaaaaaa#......................",
"..................#aaaaabbbbbbbbbbbbbbbbaaaaa#..................",
"................#aaabbbbbbbbbbbbbbbbbbbbbbbbbaaa................",
"..............#aabbbbbbbbbbbbbbbbbbbbbbbbbbbbbbaaa..............",
".............aabbbbbbbbb################cbbbbbbbbaa#............",
"...........#aabbbbb#dddddddddddddddddddddddd#bbbbbbae...........",
"..........fabbbbbgdddddddddddddddddddddddddddddbbbbbaa..........",
".........aabbbb#dddddddddddddddddddddddddddddddddbbbbaa.........",
"........habbbidddddddddddddddddddddddddddddddddddd#bbbaa........",
".......#abbb#dddddddddddddddddddddddddddddddddddddddbbbaj.......",
".......abbbddddddddddddddddddkkkkkkkkkkkkkkkkkdddddddbbba#......",
"......albbdddddddddddddddkkkkkkkkkkkkkkkkkkkkkkkkkddddbbba......",
".....#abbddddddddddddddkkkkkkkkkkkkkkkkkkkkkkkkkkkkkkddbbaa.....",
".....abb#ddddddddddddkkkkkkkkkkkkkkkkkkkkkkkkkkkkkkkkkkdbba.....",
"....aabbdddddddddddkkkkkkkkkkkkkkkkkkkkkkkkkkkkkkkkkkkkk#bba....",
"....abbdddddddddddkkkkkkkkkkkkkkkkkkkkkkkkkkkkkkkkkkkkkkkbba....",
"...#ab#ddddddddddkkkkkkkkkkkkkkkkkkkkkkkkkkkkkkkkkkkkkkkkkbaa...",
"...abbddddddddddkkkkkkkkkkkkkkkkkkkkkkkkkkkkkkkkkkkkkkkkkkbba...",
"...ab#dddddddddkkkkkkkkkkkkkkkkkkkkkkkkkkkkkkkkkkkkkkkkkkkkbam..",
"..#abdddddddddkkkkkkkkkkkkkkkkkkkkkkkkkkkkkkkkkkkkkkkkkkkkkbba..",
"..abbddddddddkkkkkkkkkkkkkkkkkkkkkkkkkkkkkkkkkkkkkkkkkkkkkk#ba..",
"..abdddddddddkkkkkkkkkkkkkkkkkkkkkkkkkkkkkkkkkkkkkkkkkkkkkkkba..",
"..abddddddddkkkkkkkkkkkkkkkkkkkkkkkkkkkkkkkkkkkkkkkkkkkkkkkkba..",
"..abdddddddnkkkkkkkkkkkkkkkkkkkkkkkkkkkkkkkkkkkkkkkkkkkkkkkkoa..",
"..apdddddddkkkkkkkkkkkkkkkkkkkkkkkkkkkkkkkkkkkkkkkkkkkkkkkkk#b#.",
"..a#dddddddkkkkkkkkkkkkkkkkkkkkkkkkkkkkkkkkkkkkkkkkkkkkkkkkkkb#.",
".qldddddddkkkkkkkkkkkkkkkkkkkkkkkkkkkkkkkkkkkkkkkkkkkkkkkkkkkb#.",
".#bdddddddkkkkkkkkkkkkkkkkkkkkkkkkkkkkkkkkkkkkkkkkkkkkkkkkkkkba.",
".#bdddddddkkkkkkkkkkkkkkkkkkkkkkkkkkkkkkkkkkkkkkkkkkkkkkkkkkkba.",
".#bddddddkkkkkkkkkkkkkkkkkkkkkkkkkkkkkkkkkkkkkkkkkkkkkkkkkkkkba.",
".abddddddkkkkkkkkkkkkkkkkkkkkkkkkkkkkkkkkkkkkkkkkkkkkkkkkkkkkba.",
".abddddddkkkkkkkkkkkkkkkkkkkkkkkkkkkkkkkkkkkkkkkkkkkkkkkkkkkkba.",
"rrrrrrrrrrrrrrrrrrrrrrrrrrrrrrrrrrrrrrrrrrrrrrrrrrrrrrrrrrrrrrrr",
"aaaaaaaaaaaaaaaaaaaaaaaaaaaaaaa###aaaaaaaaaaaaaaaaaaaaaaaaaaaaaa",
"aaaaaaaaaaaaaaaaaaaaaaaaaaaaaastt#aaaaaaaaaaaaaaaaaaaaaaaaaaaaaa",
"aaaaaaaaaaaaaaaaaaaaaaaaaaaaaastt#aaaaaaaaaaaaaaaaaaaaaaaaaaaaaa",
"aaaaaaaaaaaaaaaaaaaaaaaaaaaaaastt#t#aaaaaaaaaaaaaaaaaaaaaaaaaaaa",
"aaaaaaaaaaaaaaaaaaaaaaaaaaaaaastt##u#aaaaaaaaaaaaaaaaaaaaaaaaaaa",
"vvvvvvvvvvvvvvvvvvvvvvvvvvvvvvwtt#vvtvvvvvvvvvvvvvvvvvvvvvvvvvvv",
"..xxxxyzzzzzzzzzzzzzzzzzzzzzzA#tt#zztzzzzzzzzzzzzzzzBBBBB#CDDD#.",
"..xxxxyzzzzzzzzzzzzzzzzzzzzzzzEuu#zztzzzzzzzzzzzzzzBBBBBB#CDDD..",
"..xxxxyzzzzzzzzzzzzzzzzzzzzzzzz##zzztzzzzzzzzzzzzzzBBBBBBCFDDD..",
"..xxxxyzzzzzzzzzzzzzzzzzzzzzzzzzzzz#zzzzzzzzzzzzzzBBBBBBBCDDDD..",
"..xxxxyzzzzzzzzzzzzzzzzzzzzzzzz###ztzzzzzzzzzzzzzzBBBBBBBCDDDD..",
"..xxxxyzzzzzzzzzzzzzzzzzzzzzttttttttu#zzzzzzzzzzzBBBBBBBBCDDDD..",
"..xxxxyzzzzzzzzzzzzzzzzzzz#tttt##tttuuzzzzzzzzzzBBBBBBBBBCDDDD..",
"..xxxxyzzzzzzzzzzzzzzzzzzzztttt##tttu#zzzzzzzzzBBBBBBBBBBCDDDD..",
"..xxxxyzzzzzzzzzzzzzzzzzzzzttttt#tttuzzzzzzzzzBBBBBBBBBBBCDDDD..",
"..xxxxyzzzzzzzzzzzzzzzzzzzz#tttt#ttuuzzzzzzzzBBBBBBBBBBBBCDDDD..",
"..#xxxyzzzzzzzzzzzzzzzzzzzzztttttttuuzzzzzzzBBBBBBBBBBBBBCDDDD..",
"..#xxxy#zzzzzzzzzzzzzzzzzzzzGtttttuuzzzzzzHBBBBBBBBBBBBBBCDDDD..",
"..#xxxy#zzzzzzzzzzzzzzzzzzzzzuttuuu#zzzzzBBBBBBBBBBBBBBBBCDDD#..",
"...xxxy#zzzzzzzzzzzzzzzzzzzzzzIuuJzzzzzBBBBBBBBBBBBBBBBBKCDDD#..",
"...xxxLMzzzzzzzzzzzzzzzzzzzzzzzzzzzzzBBBBBBBBBBBBBBBBBBB#CDDD#..",
"...xxxxyzzzzzzzzzzzzzzzzzzzzzzzzzzBBBBBBBBBBBBBBBBBBBBBB#CDDDN..",
"...xxxxyzzzzzzzzzzzzzzzzzzzzzzOBBBBBBBBBBBBBBBBBBBBBBBBB#CDDD...",
"...xxxxyzzzzzzzzzzzzzzzzzBBBBBBBBBBBBBBBBBBBBBBBBBBBBBBBCDDDD...",
"..rrrrrrrrrrrrrrrrrrrrrrrrrrrrrrrrrrrrrrrrrrrrrrrrrrrrrrrrrrrr#.",
"..aaaaaaaaaaaaaaaaaaaaaaaaaaaaaaaaaaaaaaaaaaaaaaaaaaaaaaaaaaaa#.",
"..aaaaaaaaaaaaaaaaaaaaaaaaaaaaaaaaaaaaaaaaaaaaaaaaaaaaaaaaaaaa#.",
"..aaaaaaaaaaaaaaaaaaaaaaaaaaaaaaaaaaaaaaaaaaaaaaaaaaaaaaaaaaaa#.",
"..aaaaaaaaaaaaaaaaaaaaaaaaaaaaaaaaaaaaaaaaaaaaaaaaaaaaaaaaaaaa#.",
"..aaaaaaaaaaaaaaaaaaaaaaaaaaaaaaaaaaaaaaaaaaaaaaaaaaaaaaaaaaaa#.",
"..vvvvvvvvvvvvvvvvvvvvvvvvvvvvvvvvvvvvvvvvvvvvvvvvvvvvvvvvvvvv#."};
