/* XPM */
static char *dummy[]={
"64 64 84 2",
"Qt c None",
".U c #000000",
".X c #000000",
".# c #000000",
".G c #0a0300",
".w c #0d0300",
".i c #110500",
".e c #120500",
".W c #150600",
".o c #160c03",
".K c #200900",
"#r c #280d0d",
".z c #290b01",
".j c #330c01",
".u c #391d08",
"#e c #3b1506",
".g c #3f0f01",
".p c #421001",
".d c #421101",
".c c #45230a",
".v c #4a1301",
".k c #551701",
"#p c #582208",
".l c #5e2200",
"#h c #5f2809",
".5 c #662a00",
".I c #662b00",
".m c #662c00",
"#o c #682b0d",
".J c #6f3300",
".E c #6f3400",
".Y c #6f3500",
"#d c #70260a",
".n c #783d00",
".t c #784000",
"#l c #7a2827",
"#j c #80320b",
".0 c #813800",
".b c #852303",
".h c #882704",
"#g c #892322",
".C c #8a4200",
".f c #8b2a06",
"#c c #8b3911",
".3 c #8b4700",
".Z c #8b4e00",
".N c #8c5400",
".2 c #955600",
"#i c #98410f",
"#k c #9c4310",
".y c #9e5f00",
"#m c #9f7d18",
"#f c #a33634",
"#b c #a44711",
".H c #a66c00",
".1 c #a86800",
".B c #b17000",
".a c #b85f1a",
".M c #bb7900",
".Q c #c38a00",
".6 c #c99100",
"#. c #cc7723",
".7 c #cc9400",
".8 c #ce8a00",
".4 c #d67e00",
".T c #d79300",
".R c #d8a500",
".O c #dea800",
".V c #e1b000",
".S c #e87400",
".A c #eaa400",
".x c #f27a00",
".P c #f4ac00",
".9 c #f4c400",
".r c #fb8000",
".F c #fb8600",
".L c #fc9b00",
".D c #fdab00",
".s c #fdb500",
".q c #fece00",
"#a c #ff9e06",
"#n c #ffa30a",
"#q c #ffbe1e",
"## c #ffc926",
"QtQtQtQtQtQtQtQtQtQtQtQtQtQtQtQtQtQtQtQtQtQt.#.a.a.a.a.a.a.a.a.a.a.a.a.a.a.a.a.a.a.#QtQtQtQtQtQtQtQtQtQtQtQtQtQtQtQtQtQtQtQtQtQt",
"QtQtQtQtQtQtQtQtQtQtQtQtQtQtQtQtQtQt.#.a.a.a.a.a.b.b.b.b.b.b.b.b.b.b.b.b.b.b.b.b.a.a.a.a.a.#QtQtQtQtQtQtQtQtQtQtQtQtQtQtQtQtQtQt",
"QtQtQtQtQtQtQtQtQtQtQtQtQtQtQtQt.c.a.a.b.b.b.b.b.b.b.b.b.b.b.b.b.b.b.b.b.b.b.b.b.b.b.b.b.b.a.a.cQtQtQtQtQtQtQtQtQtQtQtQtQtQtQtQt",
"QtQtQtQtQtQtQtQtQtQtQtQtQtQt.#.a.a.b.b.b.b.b.b.b.b.b.b.b.b.b.b.b.b.b.b.b.b.b.b.b.b.b.b.b.b.b.b.a.a.#QtQtQtQtQtQtQtQtQtQtQtQtQtQt",
"QtQtQtQtQtQtQtQtQtQtQtQtQt.a.a.b.b.b.b.b.b.b.b.d.#.#.e.e.e.e.e.e.e.e.e.e.e.e.#.#.d.b.b.b.b.b.b.b.b.a.aQtQtQtQtQtQtQtQtQtQtQtQtQt",
"QtQtQtQtQtQtQtQtQtQtQt.#.a.f.b.b.b.b.b.#.g.g.g.g.g.g.g.g.g.g.g.g.g.g.g.g.g.g.g.g.g.g.g.g.#.b.b.b.b.b.h.a.#QtQtQtQtQtQtQtQtQtQtQt",
"QtQtQtQtQtQtQtQtQtQt.a.a.b.b.b.b.b.g.g.g.g.g.g.g.g.g.g.g.g.g.g.g.g.g.g.g.g.g.g.g.g.g.g.g.g.g.g.b.b.b.b.b.a.aQtQtQtQtQtQtQtQtQtQt",
"QtQtQtQtQtQtQtQtQt.a.a.b.b.b.b.g.g.g.g.g.g.g.g.g.g.g.g.g.g.g.g.g.g.g.g.g.g.g.g.g.g.g.g.g.g.g.g.g.g.b.b.b.b.a.aQtQtQtQtQtQtQtQtQt",
"QtQtQtQtQtQtQtQt.a.a.b.b.b.#.g.g.g.g.g.g.g.g.g.g.g.g.g.g.g.g.g.g.g.g.g.g.g.g.g.g.g.g.g.g.g.g.g.g.g.g.#.b.b.b.a.aQtQtQtQtQtQtQtQt",
"QtQtQtQtQtQtQt.#.a.b.b.b.i.g.g.g.g.g.g.g.g.g.g.g.g.g.g.g.g.g.g.g.g.g.g.g.g.g.g.g.g.g.g.g.g.g.g.g.g.g.g.j.b.b.b.a.#QtQtQtQtQtQtQt",
"QtQtQtQtQtQtQt.a.b.b.b.g.g.g.g.g.g.g.g.g.g.g.g.g.g.g.g.g.g.k.k.k.k.k.k.k.k.k.k.k.k.k.k.k.k.k.g.g.g.g.g.g.g.b.b.b.aQtQtQtQtQtQtQt",
"QtQtQtQtQtQt.a.b.b.b.g.g.g.g.g.g.g.g.g.g.g.g.g.g.g.k.k.k.k.k.l.k.k.k.k.m.n.m.k.k.k.k.k.k.k.k.k.k.k.k.g.g.g.g.b.b.b.aQtQtQtQtQtQt",
"QtQtQtQtQt.o.a.b.b.g.g.g.g.g.g.g.g.g.g.g.g.g.p.k.k.k.k.q.r.r.s.r.t.q.r.r.s.s.r.q.k.k.k.k.k.k.k.k.k.k.k.k.k.g.g.b.b.a.uQtQtQtQtQt",
"QtQtQtQtQt.a.b.b.#.g.g.g.g.g.g.g.g.g.g.g.g.k.k.k.k.k.q.s.s.s.s.s.q.r.s.s.s.s.s.s.s.k.k.k.k.k.k.k.k.k.k.k.k.k.v.w.b.b.aQtQtQtQtQt",
"QtQtQtQt.a.a.b.b.g.g.g.g.g.g.g.g.g.g.g.q.q.q.q.k.k.m.q.s.s.s.s.s.m.x.s.s.s.s.s.y.m.k.k.k.k.k.k.k.k.k.k.k.k.k.k.k.z.b.a.aQtQtQtQt",
"QtQtQtQt.a.b.b.g.g.g.g.g.g.g.g.g.g.q.r.r.s.s.s.s.q.r.s.s.s.s.s.q.m.s.s.A.B.q.q.C.m.q.m.k.k.k.k.k.k.k.k.k.k.k.k.k.k.b.b.aQtQtQtQt",
"QtQtQt.#.a.b.#.g.g.g.g.g.g.g.g.g.g.q.s.s.s.s.s.q.r.s.s.D.s.E.m.F.s.s.s.s.q.r.s.s.s.s.s.s.k.k.k.k.k.k.k.k.k.k.k.k.k.G.b.a.#QtQtQt",
"QtQtQt.a.b.b.g.g.g.g.g.g.g.g.g.g.q.q.s.s.s.s.s.s.s.s.s.s.s.q.r.s.s.s.s.s.m.s.s.s.s.s.s.s.H.k.k.k.k.k.k.k.k.k.k.k.k.k.b.b.aQtQtQt",
"QtQtQt.a.b.#.g.g.g.g.g.g.g.g.m.I.r.s.s.s.s.s.s.q.s.m.s.s.s.s.s.s.s.s.s.s.s.y.s.s.s.s.s.J.s.k.k.k.k.k.k.k.k.k.k.k.k.k.K.b.aQtQtQt",
"QtQt.#.a.b.g.g.g.g.g.g.g.g.g.q.s.s.s.s.L.L.q.r.s.s.m.L.L.L.m.s.s.m.s.m.L.s.s.s.m.m.L.L.m.m.k.k.k.k.k.k.k.k.k.k.k.k.k.k.b.a.#QtQt",
"QtQt.a.b.#.g.g.g.g.g.g.g.g.k.s.s.s.s.s.s.s.q.B.s.s.s.s.s.s.s.s.s.m.q.q.q.q.m.q.m.m.q.r.r.r.r.q.k.k.k.k.k.k.k.k.k.k.k.k.#.b.aQtQt",
"QtQt.a.b.g.g.g.g.g.g.g.g.m.q.r.s.s.s.s.q.r.r.s.s.r.q.s.s.s.L.L.q.r.s.s.s.s.s.s.s.q.r.s.s.s.s.m.m.q.q.q.k.k.k.k.k.k.k.k.k.b.aQtQt",
"QtQt.a.b.g.g.g.g.g.g.g.q.r.s.s.s.M.L.q.r.s.s.s.s.s.s.s.L.L.s.s.q.s.s.s.s.s.s.s.s.q.s.s.M.q.r.r.s.r.N.O.s.q.k.k.k.k.k.k.k.b.aQtQt",
"QtQt.a.b.g.g.g.g.g.g.q.q.r.s.s.s.s.s.P.m.s.s.s.s.s.s.s.s.s.m.q.Q.m.s.s.s.s.s.s.L.s.s.s.q.s.s.s.s.s.s.s.s.s.k.k.k.k.k.k.k.b.aQtQt",
"QtQt.a.#.g.g.g.g.g.q.r.s.s.m.s.s.q.r.s.s.s.m.s.m.q.q.R.q.m.r.s.E.s.m.s.q.m.r.r.r.S.q.m.q.s.s.s.s.s.s.s.T.s.k.k.k.k.k.k.k.#.aQtQt",
"Qt.U.a.#.g.g.g.q.r.q.s.s.s.s.s.L.q.s.s.s.s.s.q.r.s.s.s.s.s.s.s.s.s.m.q.r.s.s.s.s.s.s.s.s.s.s.s.s.q.q.m.q.q.r.V.q.k.k.k.k.W.a.XQt",
"Qt.#.b.g.g.g.H.r.s.Y.B.s.s.s.s.Z.q.s.s.s.s.s.q.s.s.s.s.s.s.s.m.s.s.s.q.r.s.s.s.s.s.s.s.s.s.s.m.0.s.s.s.s.s.m.1.s.m.k.k.k.k.b.#Qt",
"Qt.#.b.g.g.g.B.s.s.m.s.s.m.m.q.r.r.r.r.q.s.s.q.m.s.s.s.s.2.s.s.s.L.L.P.m.s.s.s.s.s.y.L.s.s.s.q.r.s.s.s.s.s.s.s.m.L.k.k.k.k.b.#Qt",
"Qt.#.b.g.g.q.q.s.1.s.s.s.m.q.r.s.s.s.s.s.s.L.s.s.B.q.r.r.r.r.q.m.s.s.m.m.s.s.m.3.L.4.m.s.s.s.s.q.q.q.q.s.s.s.L.L.k.k.k.k.k.b.#Qt",
"Qt.a.b.q.r.s.s.s.5.L.L.6.q.q.s.s.s.s.s.E.7.m.s.m.q.r.s.s.s.s.s.s.s.s.m.q.m.r.s.s.r.q.m.L.L.q.r.D.s.s.s.s.s.L.L.s.s.r.q.k.k.b.aQt",
"Qt.a.b.q.s.s.s.s.s.s.s.m.s.s.s.8.s.q.r.r.s.s.r.q.q.s.s.s.s.s.s.s.L.L.q.9.s.s.s.s.s.s.s.r.r.q.s.s.s.s.s.s.s.s.s.s.s.s.s.s.k.b.aQt",
"Qt.a.b.m.m.s.s.s.s.s.m.s.s.s.s.s.m.r.s.s.s.s.q.r.s.s.m.s.s.q.q.q.q.q.q.s.s.s.s.s.s.s.s.s.s.q.s.s.s.s.s.s.s.s.s.s.s.s.s.s.m.b.aQt",
"#.#.#.#.#.#.#.#.#.#.#.#.#.#.#.#.#.#.#.#.#.#.#.#.#.#.#.#.#.#.#.#.#.#.#.#.#.#.#.#.#.#.#.#.#.#.#.#.#.#.#.#.#.#.#.#.#.#.#.#.#.#.#.#.",
".a.a.a.a.a.a.a.a.a.a.a.a.a.a.a.a.a.a.a.a.a.a.a.a.a.a.a.a.a.a.a.#.#.a.a.a.a.a.a.a.a.a.a.a.a.a.a.a.a.a.a.a.a.a.a.a.a.a.a.a.a.a.a.a",
".a.a.a.a.a.a.a.a.a.a.a.a.a.a.a.a.a.a.a.a.a.a.a.a.a.a.a.a.a.a.####a.#.a.a.a.a.a.a.a.a.a.a.a.a.a.a.a.a.a.a.a.a.a.a.a.a.a.a.a.a.a.a",
".a.a.a.a.a.a.a.a.a.a.a.a.a.a.a.a.a.a.a.a.a.a.a.a.a.a.a.a.a.a.####a.#.a.a.a.a.a.a.a.a.a.a.a.a.a.a.a.a.a.a.a.a.a.a.a.a.a.a.a.a.a.a",
".a.a.a.a.a.a.a.a.a.a.a.a.a.a.a.a.a.a.a.a.a.a.a.a.a.a.a.a.a.a.####a.###.#.a.a.a.a.a.a.a.a.a.a.a.a.a.a.a.a.a.a.a.a.a.a.a.a.a.a.a.a",
".a.a.a.a.a.a.a.a.a.a.a.a.a.a.a.a.a.a.a.a.a.a.a.a.a.a.a.a.a.a.####a.#.##a.#.a.a.a.a.a.a.a.a.a.a.a.a.a.a.a.a.a.a.a.a.a.a.a.a.a.a.a",
"#b#b#b#b#b#b#b#b#b#b#b#b#b#b#b#b#b#b#b#b#b#b#b#b#b#b#b#b#b#b.####a.##b#b###b#b#b#b#b#b#b#b#b#b#b#b#b#b#b#b#b#b#b#b#b#b#b#b#b#b#b",
"QtQt#c#c#c#d#e#f#f#f#f#f#f#f#f#f#f#f#f#f#f#f#f#f#f#f#f#f#f##.####a.##f#f###f#f#f#f#f#f#f#f#f#f#f#f#f#f#f#g#g#g#g#g#h#i#j#j#jQtQt",
"QtQt#c#c#c#c#d#f#f#f#f#f#f#f#f#f#f#f#f#f#f#f#f#f#f#f#f#f#f#f.##a#a.##f#f###f#f#f#f#f#f#f#f#f#f#f#f#f#f#g#g#g#g#g#g#k#j#j#j#jQtQt",
"QtQt#c#c#c#c#d#f#f#f#f#f#f#f#f#f#f#f#f#f#f#f#f#f#f#f#f#f#f#f#f.#.##f#f#l.##f#f#f#f#f#f#f#f#f#f#f#f#f#f#g#g#g#g#g#g#k#j#j#j#jQtQt",
"QtQt#c#c#c#c#d#f#f#f#f#f#f#f#f#f#f#f#f#f#f#f#f#f#f#f#f#f#f#f#f#f#f#f#f#a#f#f#f#f#f#f#f#f#f#f#f#f#f#f#g#g#g#g#g#g#g#k#j#j#j#jQtQt",
"QtQt#c#c#c#c#d#f#f#f#f#f#f#f#f#f#f#f#f#f#f#f#f#f#f#f#f#f#f#f#f.#.#.##f###f#f#f#f#f#f#f#f#f#f#f#f#f#f#g#g#g#g#g#g#g#k#j#j#j#jQtQt",
"QtQt#c#c#c#c#d#f#f#f#f#f#f#f#f#f#f#f#f#f#f#f#f#f#f#f#f#f#################a.##f#f#f#f#f#f#f#f#f#f#f#g#g#g#g#g#g#g#g#k#j#j#j#jQtQt",
"QtQt#c#c#c#c#d#f#f#f#f#f#f#f#f#f#f#f#f#f#f#f#f#f#f#f#m########.#.########a.##f#f#f#f#f#f#f#f#f#f#g#g#g#g#g#g#g#g#g#k#j#j#j#jQtQt",
"QtQt#c#c#c#c#d#f#f#f#f#f#f#f#f#f#f#f#f#f#f#f#f#f#f#f#f########.#.########a#f#f#f#f#f#f#f#f#f#f#g#g#g#g#g#g#g#g#g#g#k#j#j#j#jQtQt",
"QtQt#c#c#c#c#d#f#f#f#f#f#f#f#f#f#f#f#f#f#f#f#f#f#f#f#f##########.######n#a#f#f#f#f#f#f#f#f#f#g#g#g#g#g#g#g#g#g#g#g#k#j#j#j#jQtQt",
"QtQt#c#c#c#c#d#f#f#f#f#f#f#f#f#f#f#f#f#f#f#f#f#f#f#f#f##########.######a#a#f#f#f#f#f#f#f#f#g#g#g#g#g#g#g#g#g#g#g#g#k#j#j#j#jQtQt",
"QtQt#o#c#c#c#d#f#f#f#f#f#f#f#f#f#f#f#f#f#f#f#f#f#f#f#f#f###############a.##f#f#f#f#f#f#f#g#g#g#g#g#g#g#g#g#g#g#g#g#k#j#j#j#pQtQt",
"QtQt.##c#c#c#d#f#f#f#f#f#f#f#f#f#f#f#f#f#f#f#f#f#f#f#f#f#############a#a#f#f#f#f#f#f#g#g#g#g#g#g#g#g#g#g#g#g#g#g#g#k#j#j#j.#QtQt",
"QtQt.##c#c#c#d.##f#f#f#f#f#f#f#f#f#f#f#f#f#f#f#f#f#f#f#f#f#a###q#a#a#a#f#f#f#f#f#f#g#g#g#g#g#g#g#g#g#g#g#g#g#g#g.##k#j#j#j.#QtQt",
"QtQt.##c#c#c#d.##f#f#f#f#f#f#f#f#f#f#f#f#f#f#f#f#f#f#f#f#f#f#r#a#a.##f#f#f#f#f#g#g#g#g#g#g#g#g#g#g#g#g#g#g#g#g#g.##k#j#j#j.#QtQt",
"QtQtQt#c#c#c#d.##f#f#f#f#f#f#f#f#f#f#f#f#f#f#f#f#f#f#f#f#f#f#f#f#f#f#f#f#f#g#g#g#g#g#g#g#g#g#g#g#g#g#g#g#g#g#g#g.##k#j#j#jQtQtQt",
"QtQtQt#c#c#c#c#d#f#f#f#f#f#f#f#f#f#f#f#f#f#f#f#f#f#f#f#f#f#f#f#f#f#f#g#g#g#g#g#g#g#g#g#g#g#g#g#g#g#g#g#g#g#g#g#g#k#j#j#j#jQtQtQt",
"QtQtQt#c#c#c#c#d#f#f#f#f#f#f#f#f#f#f#f#f#f#f#f#f#f#f#f#f#f#f#g#g#g#g#g#g#g#g#g#g#g#g#g#g#g#g#g#g#g#g#g#g#g#g#g#g#k#j#j#j#jQtQtQt",
"QtQtQt#c#c#c#c#d#f#f#f#f#f#f#f#f#f#f#f#f#f#f#f#f#f#g#g#g#g#g#g#g#g#g#g#g#g#g#g#g#g#g#g#g#g#g#g#g#g#g#g#g#g#g#g#g#k#j#j#j#jQtQtQt",
"QtQt#.#.#.#.#.#.#.#.#.#.#.#.#.#.#.#.#.#.#.#.#.#.#.#.#.#.#.#.#.#.#.#.#.#.#.#.#.#.#.#.#.#.#.#.#.#.#.#.#.#.#.#.#.#.#.#.#.#.#.#.QtQt",
"QtQt.a.a.a.a.a.a.a.a.a.a.a.a.a.a.a.a.a.a.a.a.a.a.a.a.a.a.a.a.a.a.a.a.a.a.a.a.a.a.a.a.a.a.a.a.a.a.a.a.a.a.a.a.a.a.a.a.a.a.a.aQtQt",
"QtQt.a.a.a.a.a.a.a.a.a.a.a.a.a.a.a.a.a.a.a.a.a.a.a.a.a.a.a.a.a.a.a.a.a.a.a.a.a.a.a.a.a.a.a.a.a.a.a.a.a.a.a.a.a.a.a.a.a.a.a.aQtQt",
"QtQt.a.a.a.a.a.a.a.a.a.a.a.a.a.a.a.a.a.a.a.a.a.a.a.a.a.a.a.a.a.a.a.a.a.a.a.a.a.a.a.a.a.a.a.a.a.a.a.a.a.a.a.a.a.a.a.a.a.a.a.aQtQt",
"QtQt.a.a.a.a.a.a.a.a.a.a.a.a.a.a.a.a.a.a.a.a.a.a.a.a.a.a.a.a.a.a.a.a.a.a.a.a.a.a.a.a.a.a.a.a.a.a.a.a.a.a.a.a.a.a.a.a.a.a.a.aQtQt",
"QtQt.a.a.a.a.a.a.a.a.a.a.a.a.a.a.a.a.a.a.a.a.a.a.a.a.a.a.a.a.a.a.a.a.a.a.a.a.a.a.a.a.a.a.a.a.a.a.a.a.a.a.a.a.a.a.a.a.a.a.a.aQtQt",
"QtQt#b#b#b#b#b#b#b#b#b#b#b#b#b#b#b#b#b#b#b#b#b#b#b#b#b#b#b#b#b#b#b#b#b#b#b#b#b#b#b#b#b#b#b#b#b#b#b#b#b#b#b#b#b#b#b#b#b#b#b#bQtQt"};
