/* XPM */
static char *dummy[]={
"64 64 12 1",
". c None",
"d c #000000",
"j c #333333",
"i c #663300",
"b c #663333",
"h c #6666ff",
"c c #996633",
"f c #cc6666",
"# c #cc9966",
"g c #ff9933",
"e c #ffcc66",
"a c #ffcc99",
"................................................................",
"................................................................",
"................................................................",
"................................................................",
"................................................................",
"................................................................",
"...........................####.................................",
"...........................###a#................................",
"............................###a#...............................",
"..............................##a#..............................",
"..............................##aa#.............................",
"..............................##aa#.............................",
"..............................##aaa##...........................",
"..............................##aaa##...........................",
"..............................#aaaa##...........................",
"...........................#bb#aaaa##...........................",
"..........................#bbbb####bbcc.........................",
".........................#ddbbbbbbbbbcc.........................",
"........................bbddcccceecccccc........................",
"......................####cccccceecccccc........................",
"......................bbb##ccccceecccccc........................",
"......................ee###ccccccccccccc........................",
"......................ee###ccccccccccccc........................",
"......................###bbcccccccccccb.........................",
".........................bbbbbbbbbbbbb..........................",
"..........................bbfffffffff...........................",
"..........................bfcccccccff...........................",
".........................bcfcccccccccff.........................",
"........................bcffccccccccccf.........................",
"........................bcfcccccccccccf.........................",
"........................bcfcccccccccccf.........................",
"........................bccfcccccccccf..........................",
"........................bbcfbbbcccbbbf..........................",
".........................bbfccbbbbbccf..........................",
"..........................gfcccccccccf..........................",
"..........................gfcccccccccf..........................",
"..........................gfffcccccccff.........................",
"..........................ggffbccccccbf.........................",
"..........................ggffcccccccff.........................",
"..........................hiffcccccccf..........................",
"..........................hiffcccccccf..........................",
"..........................hcffbbcccfff..........................",
"..........................hfffffbcfff...........................",
"..........................fbbbbbfffff...........................",
"..........................fbbbbbbfbff...........................",
"..........................fbbbbbbfbff...........................",
"..........................jjjjjjjbbff...........................",
"..........................hhffbbbcfff...........................",
"..........................hhffccccf.............................",
"...........................hffccccf.............................",
"...........................hffccccf.............................",
"..............................iiii..............................",
"..............................iiii..............................",
"..............................iiii..............................",
"..............................iiii..............................",
"............................cccccc..............................",
"............................cccccc..............................",
"............................cccccc..............................",
"............................jjjjjj..............................",
"................................................................",
"................................................................",
"................................................................",
"................................................................",
"................................................................"};
