/* XPM */
static char *dummy[]={
"64 64 12 1",
". c None",
"d c #000000",
"j c #333333",
"h c #663300",
"b c #663333",
"i c #6666ff",
"c c #996633",
"f c #cc6666",
"# c #cc9966",
"g c #ff9933",
"e c #ffcc66",
"a c #ffcc99",
"................................................................",
"................................................................",
"................................................................",
"................................................................",
"................................................................",
"................................................................",
"...............................####.............................",
"..............................#a###.............................",
".............................#a###..............................",
"............................#a##................................",
"...........................#aa##................................",
"...........................#aa##................................",
".........................##aaa##................................",
".........................##aaa##................................",
".........................##aaaa#................................",
".........................##aaaa#bb#.............................",
".......................ccbb####bbbb#............................",
".......................ccbbbbbbbbbdd#...........................",
"......................cccccceeccccddbb..........................",
"......................cccccceecccccc####........................",
"......................cccccceeccccc##bbb........................",
"......................ccccccccccccc###ee........................",
"......................ccccccccccccc###ee........................",
".......................bcccccccccccbb###........................",
"........................bbbbbbbbbbbbb...........................",
".........................fffffffffbb............................",
".........................ffcccccccfb............................",
".......................ffcccccccccfcb...........................",
".......................fccccccccccffcb..........................",
".......................fcccccccccccfcb..........................",
".......................fcccccccccccfcb..........................",
"........................fcccccccccfccb..........................",
"........................fbbbcccbbbfcbb..........................",
"........................fccbbbbbccfbb...........................",
"........................fcccccccccfg............................",
"........................fcccccccccfg............................",
".......................ffcccccccfffg............................",
".......................fbccccccbffgg............................",
".......................ffcccccccffgg............................",
"........................fcccccccffhi............................",
"........................fcccccccffhi............................",
"........................fffcccbbffci............................",
".........................fffcbfffffi............................",
".........................fffffbbbbbf............................",
".........................ffbfbbbbbbf............................",
".........................ffbfbbbbbbf............................",
".........................ffbbjjjjjjj............................",
".........................fffcbbbffii............................",
"...........................fccccffii............................",
"...........................fccccffi.............................",
"...........................fccccffi.............................",
"............................hhhh................................",
"............................hhhh................................",
"............................hhhh................................",
"............................hhhh................................",
"............................cccccc..............................",
"............................cccccc..............................",
"............................cccccc..............................",
"............................jjjjjj..............................",
"................................................................",
"................................................................",
"................................................................",
"................................................................",
"................................................................"};
