/* XPM */
static char *dummy[]={
"64 64 14 1",
". c None",
"d c #000000",
"l c #333333",
"j c #3333ff",
"g c #663300",
"c c #663333",
"k c #666633",
"i c #6666ff",
"b c #996633",
"f c #cc6666",
"# c #cc9966",
"h c #ff9933",
"e c #ffcc66",
"a c #ffcc99",
"................................................................",
"................................................................",
"................................................................",
"..........................###......###..........................",
"........................##a##......#aa##........................",
".......................##aa#........#aa##.......................",
"......................##aa##.........#aa##......................",
".....................##aa##...........#aa##.....................",
".....................#aa##............##aa##....................",
"....................##aa#..............#aaa#....................",
"....................##aa#..............#aaa#....................",
"....................##aa#..............#aaa#....................",
"....................##aa####bbbbbbbb####aa##....................",
"....................###aaac##########caaaa##....................",
".....................###aaccc######ccca####.....................",
"......................####ccdd####ddccb###......................",
"......................####ccdd####ddccb###......................",
"......................bbbbbbddbbbbddbbbbbb......................",
"......................eebbbbb######bbbbbee......................",
"......................eebbbb########bbbbee......................",
"......................ee.bb##cccccc##bb.ee......................",
".........................bb##ecccce##bb.........................",
".........................cb##eeeeee##bc.........................",
".........................cbb########bbc.........................",
"....................ffffffccbbbbbbbbccfffff.....................",
"...................ffbbbbbbbbbbbbbbbbbbbbbfff...................",
"...................fbbbbbfbbbbbbbbbbbbfbbbbbf...................",
"...................fbbbbbfbbbbbffbbbbbfbbbbbf...................",
"...................fbbbbbfbbbbbffbbbbbfbbbbbf...................",
"...................ffbbbbfbbbbfbbfbbbbfbbbbff...................",
"....................fcbbbcggggbbbbggggcbbbcf....................",
"...................ffcbbbcbbbbbbbbbbbbcbbbcff...................",
"..................ffbbbbccbbhhhhhhhhhbcbbbbbf...................",
".................fffbbbbc.bhhggfffgghhbccbbbbf..................",
".................fbbbbccc.bhhffgggffhhb.ccbbbf..................",
"................ffbbbccc..hhhffgggffhhh..cbbbbff................",
"................ffbbbc....hhhfffffffhhh..cbbbbbf................",
"................fbbbbc....fffffffffffff...cbbbbf................",
"................fbbbcc....gggiiiiijjggg....ccbbff...............",
"................fbbbcc....gggiiiiijjggg....ccbbbf...............",
"................bbbbbbb...fbbiijjijjbbf...bbbbbbb...............",
"................bbbbbb...fbbbiijjijjbbbf...bbbbbb...............",
"................bbbbbb...fbbbiijjiiibbbf...bbbbbb...............",
"................bbbbbb...fbbbiijjiiibbbf...bbbbbb...............",
"................cccccc...fbbbiijjiiibbbf...cccccc...............",
".........................fbbbjjiijiibbbf........................",
"..........................fbbjjiijiibbf.........................",
"..........................fbbjjiijiibbf.........................",
"..........................fbbjjiijiibbf.........................",
"..........................fbbjjiijiibbk.........................",
"..........................gggg.....gggg.........................",
"..........................gggg.....gggg.........................",
"..........................gggg.....gggg.........................",
"..........................gggg.....gggg.........................",
"..........................bbbb.....bbbb.........................",
".........................bbbbbb...bbbbbb........................",
".........................bbbbbb...bbbbbb........................",
".........................llllll...llllll........................",
"................................................................",
"................................................................",
"................................................................",
"................................................................",
"................................................................",
"................................................................"};
