/* XPM */
static char *dummy[]={
"64 64 12 1",
". c None",
"j c #333333",
"h c #3333ff",
"f c #663300",
"d c #663333",
"i c #666633",
"g c #6666ff",
"b c #996633",
"e c #cc6666",
"# c #cc9966",
"c c #ffcc66",
"a c #ffcc99",
"................................................................",
"................................................................",
"................................................................",
"........................###......###............................",
"......................##a##......#aa##..........................",
"......................##a##......#aa##..........................",
".....................##aa#........#aa##.........................",
"....................##aa##.........#aa##........................",
"...................##aa##...........#aa##.......................",
"...................#aa##............##aa##......................",
"..................##aa#..............#aaa#......................",
"..................##aa#..............#aaa#......................",
"..................##aa#..............#aaa#......................",
"..................##aa####bbbbbbbb####aa##......................",
"..................###aaabbbbbbbbbbbbaaaa##......................",
"...................###aabbbbbbbbbbbba####.......................",
"...................###aabbbbbbbbbbbba####.......................",
"....................####bbbbbbbbbbbbb###........................",
"....................bbbbbbbbbbbbbbbbbbbb........................",
"....................ccbbbbbbbbbbbbbbbbcc........................",
"....................ccbbbbbbbbbbbbbbbbcc........................",
"....................cc.bbbbbbbbbbbbbb.cc........................",
".......................bbbbbbbbbbbbbb...........................",
".......................dbbbbbbbbbbbbd...........................",
".......................dbbbbbbbbbbbbd...........................",
"..................eeeeeeddbbbbbbbbddeeeee.......................",
".................eebbbbbbbbbbbbbbbbbbbbbeee.....................",
".................eebbbbbbbbbbbbbbbbbbbbbeee.....................",
".................ebbbbbbbbbbbbbbbbbbbbbbbbe.....................",
".................ebbbbbbbbbbbbbbbbbbbbbbbbe.....................",
".................ebbbbbbbbbbbbbbbbbbbbbbbbe.....................",
".................eebbbbbbbbbbbbbbbbbbbbbbee.....................",
"..................edbbbdbbbbbbbbbbbbdbbbde......................",
".................eedbbbdbbbbbbbbbbbbdbbbdee.....................",
"................eebbbbddbbbbbbbbbbbbdbbbbbe.....................",
"...............eeebbbbd.bbbbbbbbbbbbbddbbbbe....................",
"...............ebbbbddd.bbbbbbbbbbbbb.ddbbbe....................",
"...............ebbbbddd.bbbbbbbbbbbbb.ddbbbe....................",
"..............eebbbddd..bbbbbbbbbbbbb..dbbbbee..................",
"..............eebbbd....bbbbbbbbbbbbb..dbbbbbe..................",
"..............ebbbbd....bbbbbbbbbbbbb...dbbbbe..................",
"..............ebbbdd....fffggggghhfff....ddbbee.................",
"..............ebbbdd....fffggggghhfff....ddbbbe.................",
"..............bbbbbbb...ebbgghhghhbbe...bbbbbbb.................",
"..............bbbbbb...ebbbgghhghhbbbe...bbbbbb.................",
"..............bbbbbb...ebbbgghhgggbbbe...bbbbbb.................",
"..............bbbbbb...ebbbgghhgggbbbe...bbbbbb.................",
"..............dddddd...ebbbgghhgggbbbe...dddddd.................",
"..............dddddd...ebbbgghhgggbbbe...dddddd.................",
".......................ebbbhhgghggbbbe..........................",
"........................ebbhhgghggbbe...........................",
"........................ebbhhgghggbbe...........................",
"........................ebbbb...bbbbi...........................",
"........................ffff.....ffff...........................",
"........................ffff.....ffff...........................",
"........................ffff.....ffff...........................",
"........................ffff.....ffff...........................",
"........................bbbb.....bbbb...........................",
".......................bbbbbb...bbbbbb..........................",
".......................bbbbbb...bbbbbb..........................",
".......................bbbbbb...bbbbbb..........................",
".......................jjjjjj...jjjjjj..........................",
"................................................................",
"................................................................"};
