/* XPM */
static char *dummy[]={
"64 64 179 2",
"#W c #00ff00",
"aa c #02f702",
"#2 c #03f803",
"#V c #05fa05",
"a# c #09eb08",
"#3 c #0cf009",
"aE c #0fba0e",
"aM c #14d311",
"aS c #16d012",
"aA c #189417",
"aW c #199017",
"ai c #19c716",
"aQ c #1a8a19",
"ah c #1bc517",
"ad c #1bdc15",
"aV c #1d801b",
"aR c #1dbf19",
"#9 c #1dda16",
"#6 c #1ed818",
"ax c #20b91b",
"aH c #24b11f",
"aB c #25ae1f",
"ab c #26ce1d",
"#1 c #29ca20",
"ap c #2ba125",
"aU c #2d392a",
"az c #2d9c27",
"aq c #2ec324",
".# c #2f2e2c",
"ay c #309629",
"ao c #31932a",
"aD c #348e2c",
"#4 c #34bc28",
"aP c #38862f",
"aK c #3a8032",
"aO c #3c7b33",
"aL c #3c7d33",
"aC c #3f7636",
"#b c #402a28",
"#i c #432928",
"aN c #436d39",
"aT c #446a3a",
"aJ c #45683b",
"aI c #48613d",
"aw c #49a039",
"aj c #4c5a40",
"ar c #4d5741",
"an c #4e993d",
"#5 c #4f993d",
"aG c #50973e",
".b c #514e45",
"av c #529540",
"#8 c #549242",
"am c #559142",
"ac c #569043",
"aF c #578e44",
"au c #598c45",
"at c #5c8748",
".7 c #5d4940",
"ag c #5d8748",
"al c #5e8549",
"ae c #5e854a",
"a. c #60824b",
"as c #60834b",
"ak c #61804c",
"#7 c #637e4d",
"af c #657b4f",
"#0 c #657c4f",
"#d c #662220",
"#X c #697752",
"#k c #6a2120",
".R c #6a433b",
"#Y c #6c7354",
".a c #726b59",
".0 c #7b3b34",
".9 c #7d3a33",
"#Z c #80ff80",
".B c #825f4f",
".x c #845d4d",
".t c #865b4c",
"#f c #871b19",
".V c #88362f",
"#U c #895a4b",
"#m c #8a1a19",
".P c #8a342e",
"#S c #8b5849",
"Qt c #8c8a73",
"#Q c #8d5648",
"#G c #8f322c",
".g c #8f5547",
"#g c #901917",
"#D c #92312b",
".k c #925345",
".I c #931817",
".y c #941817",
".M c #961716",
".X c #965042",
".v c #971716",
"#p c #977c68",
"#F c #982e29",
".T c #984e41",
".h c #991716",
"#B c #9b2d28",
"#z c #9c4b3e",
"#. c #9d2c27",
".H c #9e493d",
".4 c #a01514",
".L c #a0483c",
".D c #a32925",
"#R c #a3463a",
"#K c #a44539",
"#O c #a54439",
"#L c #a74337",
".Z c #a74338",
".E c #a94136",
"#M c #ab4035",
".l c #ac2521",
"#r c #ac6353",
".o c #af2420",
".s c #af3c32",
"#e c #b01111",
".5 c #b0231f",
".1 c #b2231f",
".W c #b23b31",
"#l c #b31110",
".Y c #b5211d",
".N c #b5382e",
"#h c #b7100f",
"#C c #b8201c",
"#n c #ba0f0e",
"## c #bd1d1a",
"#w c #bd5042",
"#t c #bf4d40",
".q c #c12f27",
".Q c #c24a3d",
".e c #c32d26",
".u c #c32e26",
".c c #c3483c",
".2 c #c52c24",
".C c #c52c25",
".i c #c82a23",
".r c #c94136",
".m c #ca2822",
".F c #ce251f",
"#A c #d0241e",
"#x c #d0382f",
".J c #d1231d",
"#J c #d2221c",
"#c c #d30a09",
"#P c #d3221c",
"#E c #d5201b",
"#s c #d5322a",
"#j c #d60909",
".8 c #d71210",
".U c #d71f19",
"#v c #d73028",
"#T c #d91d18",
"#N c #db1c17",
"#u c #db2b24",
".S c #dd0f0e",
"#I c #dd1a16",
"#y c #dd2922",
".O c #e00e0c",
".G c #e61310",
".K c #e8120f",
"#H c #ea100d",
"#q c #ea1915",
".3 c #eb0908",
".f c #ee0d0a",
".j c #f10b09",
".w c #f30605",
".n c #f30908",
".z c #f50404",
".p c #f50806",
".A c #f70605",
"#a c #fa0101",
".6 c #fa0505",
"#o c #fc0303",
".d c #ff8000",
"QtQtQtQtQtQtQtQtQtQtQtQt.#.#.#.#QtQtQtQtQtQtQtQtQtQtQtQtQtQt.#.#QtQt.a.aQtQtQtQtQtQtQtQtQtQt.#.#.a.aQtQtQtQtQtQtQtQtQtQtQtQt.#.#",
"QtQtQtQtQtQtQtQtQtQtQtQt.#.#.#.#QtQtQtQtQtQtQtQtQtQtQtQtQtQt.#.#QtQt.a.aQtQtQtQtQtQtQtQtQtQt.#.#.a.aQtQtQtQtQtQtQtQtQtQtQtQt.#.#",
"QtQt.b.b.a.a.a.a.a.a.a.a.a.a.#.#.b.b.a.a.a.a.a.a.b.b.b.b.b.b.#.#QtQt.b.b.b.b.a.a.b.b.a.a.b.b.a.a.a.a.a.a.a.a.b.b.b.b.b.b.b.b.#.#",
"QtQt.b.b.a.a.a.a.a.a.a.a.a.a.#.#.b.b.a.a.a.a.a.a.b.b.b.b.b.b.#.#QtQt.b.b.b.b.a.a.b.b.a.a.b.b.a.a.a.a.a.a.a.a.b.b.b.b.b.b.b.b.#.#",
"QtQt.b.b.a.a.a.a.a.a.a.a.a.a.b.b.a.a.a.a.a.a.a.a.a.a.b.b.b.b.#.#.#.#.b.b.a.a.a.a.a.a.a.a.a.a.a.a.a.a.a.a.a.a.a.a.a.a.b.b.b.b.#.#",
"QtQt.b.b.a.a.a.a.a.a.a.a.a.a.b.b.a.a.a.a.a.a.a.a.a.a.b.b.b.b.#.#.#.#.b.b.a.a.a.a.a.a.a.a.a.a.a.a.a.a.a.a.a.a.a.a.a.a.b.b.b.b.#.#",
"QtQt.a.a.a.a.a.a.a.a.a.a.a.a.b.b.a.a.a.a.a.a.a.a.a.a.a.a.b.b.#.#.a.a.a.a.a.a.a.a.a.a.a.a.a.a.a.a.a.a.a.a.a.a.a.a.a.a.a.a.b.b.#.#",
"QtQt.a.a.a.a.a.a.a.a.a.a.a.a.b.b.a.a.a.a.a.a.a.a.a.a.a.a.b.b.#.#.a.a.a.a.a.a.a.a.a.a.a.a.a.a.a.a.a.a.a.a.a.a.a.a.a.a.a.a.b.b.#.#",
".a.a.a.a.a.a.a.a.a.a.a.a.a.a.a.a.b.b.a.a.a.a.a.a.b.b.b.b.b.b.#.#.c.d.d.d.e.a.a.a.a.a.a.a.a.a.a.a.a.a.a.a.a.a.a.a.a.a.a.a.b.b.#.#",
".a.a.a.a.a.a.f.d.d.d.d.d.g.a.a.a.b.b.a.a.a.a.a.a.b.b.b.b.b.b.h.d.d.d.d.d.d.d.i.a.a.a.a.a.a.a.a.a.a.a.a.a.a.a.a.a.a.a.a.a.b.b.#.#",
"QtQt.a.a.a.j.d.d.d.d.d.d.d.k.a.a.a.a.a.a.a.a.b.b.b.b.b.b.b.l.d.d.d.d.d.d.d.d.d.m.a.a.a.a.a.a.a.a.a.a.a.a.a.a.a.a.a.a.b.b.b.b.#.#",
"QtQt.a.a.n.d.d.d.d.d.d.d.d.k.a.a.a.a.a.a.a.a.b.b.b.b.b.b.o.d.d.d.d.d.d.d.d.d.d.m.a.a.a.a.a.a.a.a.a.a.a.a.a.a.a.a.a.a.b.b.b.b.#.#",
"QtQt.a.p.d.d.d.d.d.d.d.d.g.a.a.a.a.a.a.a.a.a.b.b.b.b.a.q.d.d.d.d.d.r.a.s.d.d.i.a.a.a.a.a.a.a.a.a.a.a.a.a.a.a.a.a.a.a.b.b.b.b.#.#",
"QtQt.a.p.d.d.d.d.t.a.a.a.a.a.a.a.a.a.a.a.a.a.b.b.b.b.u.d.d.d.d.vQtQt.a.a.a.a.a.a.a.a.a.a.a.a.a.a.a.a.a.a.a.a.a.a.a.a.b.b.b.b.#.#",
"QtQt.b.w.d.d.d.x.a.a.a.a.a.a.a.a.a.a.a.a.a.a.a.a.a.a.u.d.d.d.y.#QtQt.b.b.a.a.a.a.a.a.a.a.a.a.a.a.a.a.a.a.a.a.a.a.a.a.b.b.b.b.#.#",
"QtQt.z.d.d.d.d.x.a.a.a.a.a.a.a.a.a.a.a.a.a.a.a.a.a.a.u.d.d.d.y.#QtQt.b.b.a.a.a.a.a.a.a.a.a.a.a.a.a.a.a.a.a.a.a.a.a.a.b.b.b.b.#.#",
"QtQt.A.d.d.d.B.a.a.a.a.a.a.a.a.a.a.a.a.a.a.a.a.a.a.C.d.d.d.d.y.#QtQt.b.b.#.#.a.a.a.a.a.a.a.a.a.a.a.a.a.a.a.a.a.a.b.b.b.b.b.b.#.#",
"QtQt.A.d.d.d.B.a.a.a.a.a.a.a.a.a.a.a.a.a.a.a.a.a.a.C.d.d.d.D.#.#QtQt.b.b.#.#.E.d.d.F.a.a.a.a.a.a.a.a.a.a.a.a.a.a.b.b.b.b.b.b.#.#",
".a.a.A.d.d.d.B.a.a.a.G.d.d.d.d.d.d.d.d.H.a.a.a.a.a.C.d.d.d.D.#.#.I.d.d.d.d.d.d.d.d.d.J.a.a.a.a.a.a.a.a.a.a.a.a.a.b.b.b.b.b.b.#.#",
".a.a.A.d.d.d.B.a.a.K.d.d.d.d.d.d.d.d.d.d.L.a.a.a.a.C.d.d.d.D.#.M.d.d.d.d.d.d.d.d.d.d.J.a.a.a.a.a.a.a.a.a.a.a.a.a.b.b.b.b.b.b.#.#",
"QtQt.A.d.d.d.B.a.a.K.d.d.d.d.d.d.d.d.d.d.L.a.a.a.a.C.d.d.d.D.#.M.d.d.d.d.d.d.d.d.d.d.J.a.a.a.a.a.a.a.a.a.a.a.a.a.a.a.a.a.b.b.#.#",
"QtQt.A.d.d.d.B.a.a.K.d.d.d.d.d.d.d.d.d.d.L.a.a.a.a.C.d.d.d.D.#.#.N.d.d.d.d.d.d.d.d.d.J.a.a.a.a.a.a.a.a.a.a.a.a.a.a.a.a.a.b.b.#.#",
"QtQt.A.d.d.d.d.x.b.b.O.d.d.d.d.d.d.d.d.d.P.b.a.a.a.C.d.d.d.D.#.#Qt.Q.d.d.d.d.d.d.d.d.J.a.a.a.a.a.a.a.a.a.a.a.a.a.a.a.b.b.b.b.#.#",
"QtQt.A.d.d.d.d.d.R.b.b.S.d.d.d.d.T.U.d.V.b.b.a.a.a.C.d.d.d.d.y.#QtQt.W.d.d.d.d.d.d.d.J.a.a.a.a.a.a.a.a.a.a.a.a.a.a.a.b.b.b.b.#.#",
"QtQt.a.p.d.d.d.d.d.d.d.d.d.d.d.X.a.a.b.b.b.b.b.b.a.a.Y.d.d.d.d.d.d.d.d.d.d.d.i.Z.d.F.a.a.a.a.a.a.b.b.b.b.a.a.a.a.a.a.b.b.b.b.#.#",
"QtQt.a.a.n.d.d.d.d.d.d.d.d.d.d.X.a.a.b.b.b.b.b.b.a.a.Y.d.d.d.d.d.d.d.d.d.d.d.i.a.a.a.a.a.a.a.a.a.b.b.b.b.a.a.a.a.a.a.b.b.b.b.#.#",
"QtQt.b.b.a.j.d.d.d.d.d.d.d.d.0.b.a.a.b.b.b.b.b.b.b.b.b.1.d.d.d.d.d.d.d.d.d.2.a.a.a.a.a.a.b.b.b.b.b.b.b.b.a.a.a.a.b.b.b.b.#.#.#.#",
"QtQt.b.b.a.a.3.d.d.d.d.d.d.k.b.b.a.a.b.b.b.b.b.b.b.b.b.b.4.d.d.d.d.d.d.d.e.a.a.a.a.a.a.a.b.b.b.b.b.b.b.b.a.a.a.a.b.b.b.b.#.#.#.#",
"QtQt.b.b.b.b.b.b.b.b.b.b.b.b.b.b.b.b.b.b.b.b.b.b.b.b.b.b.#.#.#.M.d.d.5.b.b.b.b.b.b.b.b.b.b.b.b.b.b.b.b.b.b.b.b.b.b.b.#.#.#.#.#.#",
"Qt.6.d.7.b.b.b.b.b.b.b.b.b.8.d.9.b.b.b.b.b.b.b.b.b.b.b.b.#.#.#.#QtQt.b#..d.d.d##.b.b.b.b.b.b.b.b.b.b.b.b.b.b.b.b.b.b.#.#.#.#.#.#",
"#a.d.d.d#b.#.#.#.#.#.#.##c.d.d.d#d.#.#.#.#.#.##e.d.d#f.#.#.#.#.#.##g.d.d.d.d.d.d.d#h.#.#.#.#.#.#.#.#.#.#.#.#.#.#.#.#.#.#.#.#.#.#",
"#a.d.d.d.d#i.#.#.#.#.##j.d.d.d.d.d#k.#.#.#.##l.d.d.d.d#m.#.#.#.#.I.d.d.d.d.d.d.d.d.d#n.#.#.#.#.#.#.#.#.#.#.#.#.#.#.#.#.#.#.#.#.#",
"#o.d.d.d.d#p.a.aQtQt#q.d.d.d.d.d.d#r.b.bQtQt#s.d.d.d.d#tQtQt.#.#.c.d.d.d.d.d.d.d.d.d.d#uQtQtQtQtQtQtQtQtQtQtQtQtQtQtQtQtQtQt.#.#",
"Qt.6.d.d.d#p.a.aQtQt#q.d.d.d.d.d.d#r.b.bQt#v.d.d.d.d#wQtQtQt.#.#.c.d.d.d.d#x.E.d.d.d.d.d#yQtQtQtQtQtQtQtQtQtQtQtQtQtQtQtQtQt.#.#",
"Qt.6.d.d.d.d.B.a.a.K.d.d.d.d.d.d.d.d#z.a#A.d.d.d.d.d#B.b.b.b.#.#.c.d.d.d.d#C.b#D.d.d.d.d#E.a.a.a.b.b.a.a.a.a.b.b.b.b.b.b.b.b.#.#",
"Qt.6.d.d.d.d.B.a.a.K.d.d.d.d.d.d.d.d#z.a#A.d.d.d.d#F.b.b.b.b.#.#.c.d.d.d.d#C.b.b#G.d.d.d#E.a.a.a.b.b.a.a.a.a.b.b.b.b.b.b.b.b.#.#",
"QtQt.z.d.d.d.d.x#H.d.d.d.d.k#I.d.d.d#z#J.d.d.d.d.E.a.b.b.b.b.#.#.c.d.d.d.e.a.a.a#K.d.d.d#E.a.a.a.a.a.a.a.a.a.a.a.a.a.b.b.b.b.#.#",
"QtQt.z.d.d.d.d.x#H.d.d.d.d.k#I.d.d.d#z#J.d.d.d#L.a.a.b.b.b.b.#.#.c.d.d.d.e#M.d.d.d.d.d.d#E.a.a.a.a.a.a.a.a.a.a.a.a.a.b.b.b.b.#.#",
"QtQt.a.p.d.d.d.d.d.d.d.d.g.a#I.d.d.d.d.d.d.d.d#L.a.a.b.b.b.b.#.#.c.d.d.d.d.d.d.d.d.d.d.d#E.a.a.a.a.a.a.a.a.a.a.a.a.a.a.a.b.b.#.#",
"QtQt.a.p.d.d.d.d.d.d.d.d.g.a.a#N.d.d.d.d.d.d#O.a.a.a.b.b.b.b.#.#.c.d.d.d.d.d.d.d.d.d.d#P.a.a.a.a.a.a.a.a.a.a.a.a.a.a.a.a.b.b.#.#",
"QtQt.a.a.n.d.d.d.d.d.d#Q.a.a.a#N.d.d.d.d.d.d#O.a.a.a.a.a.b.b.#.#.c.d.d.d.e#M.d.d.d.F.a.a.a.a.a.a.a.a.a.a.a.a.a.a.a.a.a.a.b.b.#.#",
"QtQt.a.a.n.d.d.d.d.d.d#Q.a.a.a#N.d.d.d.d.d#R.a.a.a.a.a.a.b.b.#.#.c.d.d.d.e.a.a.a.a.a.a.a.a.a.a.a.a.a.a.a.a.a.a.a.a.a.a.a.b.b.#.#",
".a.a.a.a.n.d.d.d.d.d#S.a.a.a.a.a#T.d.d.d.d#R.a.a.a.a.a.a.b.b.#.#.N.d.d.d.e.a.a.a.a.a.a.a.a.a.a.a.a.a.a.a.a.a.a.a.a.a.a.a.b.b.#.#",
".a.a.a.a.a.j.d.d.d#U.a.a.a.a.a.a#T.d.d.d.L.a.a.a.a.a.a.a.b.b.#.#.N.d.d.d.e.a.a.a.a.a.a.a.a.a.a.a.a.a.a.a.a.a.a.a.a.a.a.a.b.b.#.#",
"QtQt.a.a.a.a.f.d.t.a.a.a.a.a.a.a.a.U.d.H.a.a.a.a.a.a.a.a.b.b.#.#.c.d.d.d.e.a.a.a.a.a.a.a.a.a.a.a.a.a.a.a.a.a.a.a.a.a.a.a.b.b.#.#",
"QtQt.a.a.a.a.a.a.a.a.a.a.a.a.a.a.a.a.a.a.a.a.a.a.a.a.a.a.b.b.#.#.c.d.d.d.e.a.a.a.a.a.a.a.a.a.a.a.a.a.a.a.a.a.a.a.a.a.a.a.b.b.#.#",
"QtQt.b.b.a.a.a.a.a.a.a.a.a.a.a.a.a.a.a.a.a.a.a.a.a.a.a.a.b.b.#.#Qt.Q.d.q.a.a.a.a.a.a.a.a.a.a.a.a.a.a.a.a.a.a.a.a.a.a.b.b.b.b.#.#",
"QtQt.b.b.a.a.a.a.a.a.a.a.a.a.a.a.a.a.a.a.a.a.a.a.a.a.a.a.b.b.#.#QtQt.a.a.a.a.a.a.a.a.a.a.a.a.a.a.a.a.a.a.a.a.a.a.a.a.b.b.b.b.#.#",
"Qt#V#W#W#X.a.a.a.a.a.a.a.a.a.a.a.a.a.a.a.a.a.a.a.a.a.a.a.b.b.#.#.a.a.a.a.a.a.a.a.a.a.a.a.a.a.a.a.a.a.a.a.a.a.a.a.b.b.b.b.b.b.#.#",
"Qt#V#Y#Z#Z#Z#0.a.a.a.a.a.a.a.a.a.a.a.a.a.a.a.a.a.a.a.a.a.b.b.#.#.a#Z#W#W#W#W#W#W#1.a.a.a.a.a.a.a.a.a.a.a.a.a.a.a.b.b.b.b.b.b.#.#",
".b#2#Y.a.a#3#0.a.a.a.a.a.a.a.a.a.a.a.a.a.a.a.a.a.a.a.b.b.b.b.#.#Qt#Z#4.a.a.a.a.a.a.a.a#5#W#W#6.a.a.a.a.a.a.a.a.a.b.b.b.b.b.b.#.#",
".b#2#Y.a.a#3#W#7.a.a.a.a.a.a.a.a.a.a.a.a.a.a.a.a.a.a.b.b.b.b.#.#Qt#Z#4.a.a.a.a.a.a.a#Z#Z.a.a#8#9.a.a.a.a.aa.#Z#Za#.b.b.b.b.b.#.#",
".#aa#Y.a.a.a#Z#7.a.a.a.a.a.a.a.a.a.a.a.a.a.a.a.a.a.a.a.a.b.b.#.#.a#Z#4.a.a.a.a.a.a#Zab.a.a.a.aacad.a.a.aae#Z.a.aaf#Z.a.a.b.b.#.#",
".#aa#Y.a.a.a#Z#7.a.a.a.a.a.a.a.a.a.a.a.a.a.a.a.a.a.a.a.a.b.b.#.#.a#Z#4.a.a.a.a.a.a#Zab.a.a.a.aacad.a.aag#Z.a.a.aaf#Z.a.a.b.b.#.#",
"Qt#Z#Y.a.a#3#0.a.a.a.a.a.a.a.a.a.a.a.a.a.a.a.a.a.a.a.b.b.b.b.#.#Qt#Z#4.a.a.a.a.a.a#Zah.b.a.a.a.a.a.a.aag#Z.a.a.a.a.a.a.a.b.b.#.#",
"Qt#Z#Z#Z#Z#Z#0.a.a.a.a.a.a.a.a.a.a.a.a.a.a.a.a.a.a.a.b.b.b.b.#.#Qt#Z#4.a.a.a.a.a.a.a#Zai.a.a.a.a.a.a.aag#Z.a.a.a.a.a.a.a.b.b.#.#",
"Qt#Z#Zaj.a.a.a#Zak#Zal.a#Z#Z#Zam#Z#W#Wan.a.a#Z#Zao.b.b#Z#Wap.#.#Qt#Z#W#W#Waq.a.a.a.a.##Z#Z#Z#Z#9.a.a.aag#Z.a.a.a.a.a.b.b.b.b.#.#",
"Qt#Zar.b.a.a.a#Z#Zas#Zat#Zau.a.a#Zav.a.a.a#Zaw.aaxay#Zaz.b#ZaA.#Qt#ZaB.b.a.a.a.a.a.a.#.#.a.a.a#Zad.a.aag#Z.a.a.a.a.a.b.b.b.b.#.#",
"Qt#Zar.b.b.b.b#Zak.a.a.a#ZaC.a.a#Zav.a.a.b#ZaD.b.b.b#Zaz.b.b.#.#Qt#Z#4.a.b.b.b.b.a#ZaE.#.b.b.b#Zad.a.aag#Z.a.a.a.b.b.b.b.b.b.#.#",
"Qt#Zar.b.b.b.b#Zak.a.a.a#Z#WaF.a#Z#WaG.a.b.b#Z#Wao.b.baH#Wap.#.#Qt#Z#4.a.b.b.b.b.a#ZaE.#.b.b.b#Zad.a.aag#Z.a.a.aaI#Z.b.b.b.b.#.#",
"Qt#Zar.b.b.b.b#ZaJ.b.b.b#ZaC.b.b#ZaK.b.b.b.b.b.b#Zay.#.#.##ZaA.#Qt#ZaB.b.b.b.b.b.b.b#Zai.#.#aLaM.b.b.b.baN#Z.b.baI#Z.b.b.#.#.#.#",
"Qt#Zar.b.b.b.b#ZaJ.b.b.b#Z#W#WaO#Z#Z#ZaP.b#ZaD.b#Zay#ZaQ.##ZaA.#Qt#Z#W#W#W#W#W#WaR.b.b#Z#W#WaS.b.b.b.b.b.baT#Z#Z#Z.b.b.b.#.#.#.#",
".#aaaU.#.#.#.#.#.#.#.#.#.#.#.#.#.#.#.#.#.#.##Z#WaV.#.##Z#WaW.#.#.#.#.#.#.#.#.#.#.#.#.#.#.#.#.#.#.#.#.#.#.#.#.#.#.#.#.#.#.#.#.#.#",
".#.#.#.#.#.#.#.#.#.#.#.#.#.#.#.#.#.#.#.#.#.#.#.#.#.#.#.#.#.#.#.#.#.#.#.#.#.#.#.#.#.#.#.#.#.#.#.#.#.#.#.#.#.#.#.#.#.#.#.#.#.#.#.#"};
